<svg xmlns="http://www.w3.org/2000/svg" xmlns:xlink="http://www.w3.org/1999/xlink" width="500" zoomAndPan="magnify" viewBox="0 0 375 374.999991" height="500" preserveAspectRatio="xMidYMid meet" version="1.0"><defs><clipPath id="af60edc056"><path d="M 119 187 L 193 187 L 193 262 L 119 262 Z M 119 187 " clip-rule="nonzero"/></clipPath><clipPath id="96d50bf388"><path d="M 91.375 101.730469 L 241.613281 77.074219 L 269.550781 247.296875 L 119.308594 271.953125 Z M 91.375 101.730469 " clip-rule="nonzero"/></clipPath><clipPath id="8d266c67d7"><path d="M 91.375 101.730469 L 241.613281 77.074219 L 269.550781 247.296875 L 119.308594 271.953125 Z M 91.375 101.730469 " clip-rule="nonzero"/></clipPath><clipPath id="338476a86d"><path d="M 118 186 L 194 186 L 194 263 L 118 263 Z M 118 186 " clip-rule="nonzero"/></clipPath><clipPath id="2d697585d4"><path d="M 91.375 101.730469 L 241.613281 77.074219 L 269.550781 247.296875 L 119.308594 271.953125 Z M 91.375 101.730469 " clip-rule="nonzero"/></clipPath><clipPath id="cc6e22a303"><path d="M 91.375 101.730469 L 241.613281 77.074219 L 269.550781 247.296875 L 119.308594 271.953125 Z M 91.375 101.730469 " clip-rule="nonzero"/></clipPath><clipPath id="e2a05eb868"><path d="M 140 190 L 164 190 L 164 198 L 140 198 Z M 140 190 " clip-rule="nonzero"/></clipPath><clipPath id="f07f39a613"><path d="M 91.375 101.730469 L 241.613281 77.074219 L 269.550781 247.296875 L 119.308594 271.953125 Z M 91.375 101.730469 " clip-rule="nonzero"/></clipPath><clipPath id="fcec546aa2"><path d="M 91.375 101.730469 L 241.613281 77.074219 L 269.550781 247.296875 L 119.308594 271.953125 Z M 91.375 101.730469 " clip-rule="nonzero"/></clipPath><clipPath id="1a3dac125d"><path d="M 185 176 L 260 176 L 260 252 L 185 252 Z M 185 176 " clip-rule="nonzero"/></clipPath><clipPath id="b2c2b9f8a5"><path d="M 91.375 101.730469 L 241.613281 77.074219 L 269.550781 247.296875 L 119.308594 271.953125 Z M 91.375 101.730469 " clip-rule="nonzero"/></clipPath><clipPath id="a7b4500dac"><path d="M 91.375 101.730469 L 241.613281 77.074219 L 269.550781 247.296875 L 119.308594 271.953125 Z M 91.375 101.730469 " clip-rule="nonzero"/></clipPath><clipPath id="9a5600c58c"><path d="M 185 175 L 260 175 L 260 252 L 185 252 Z M 185 175 " clip-rule="nonzero"/></clipPath><clipPath id="dc6654b905"><path d="M 91.375 101.730469 L 241.613281 77.074219 L 269.550781 247.296875 L 119.308594 271.953125 Z M 91.375 101.730469 " clip-rule="nonzero"/></clipPath><clipPath id="1e1394693e"><path d="M 91.375 101.730469 L 241.613281 77.074219 L 269.550781 247.296875 L 119.308594 271.953125 Z M 91.375 101.730469 " clip-rule="nonzero"/></clipPath><clipPath id="81ff08528d"><path d="M 209 184 L 233 184 L 233 188 L 209 188 Z M 209 184 " clip-rule="nonzero"/></clipPath><clipPath id="bef413c9c4"><path d="M 91.375 101.730469 L 241.613281 77.074219 L 269.550781 247.296875 L 119.308594 271.953125 Z M 91.375 101.730469 " clip-rule="nonzero"/></clipPath><clipPath id="1fcf8e467d"><path d="M 91.375 101.730469 L 241.613281 77.074219 L 269.550781 247.296875 L 119.308594 271.953125 Z M 91.375 101.730469 " clip-rule="nonzero"/></clipPath><clipPath id="a12048a949"><path d="M 142 86 L 227 86 L 227 198 L 142 198 Z M 142 86 " clip-rule="nonzero"/></clipPath><clipPath id="1b69a3a6ec"><path d="M 91.375 101.730469 L 241.613281 77.074219 L 269.550781 247.296875 L 119.308594 271.953125 Z M 91.375 101.730469 " clip-rule="nonzero"/></clipPath><clipPath id="cd24ff2ab5"><path d="M 91.375 101.730469 L 241.613281 77.074219 L 269.550781 247.296875 L 119.308594 271.953125 Z M 91.375 101.730469 " clip-rule="nonzero"/></clipPath><clipPath id="29d713d83f"><path d="M 142 86 L 228 86 L 228 198 L 142 198 Z M 142 86 " clip-rule="nonzero"/></clipPath><clipPath id="398421e9aa"><path d="M 91.375 101.730469 L 241.613281 77.074219 L 269.550781 247.296875 L 119.308594 271.953125 Z M 91.375 101.730469 " clip-rule="nonzero"/></clipPath><clipPath id="5157cec5f5"><path d="M 91.375 101.730469 L 241.613281 77.074219 L 269.550781 247.296875 L 119.308594 271.953125 Z M 91.375 101.730469 " clip-rule="nonzero"/></clipPath><clipPath id="73aa66ecb8"><path d="M 132 103 L 181 103 L 181 158 L 132 158 Z M 132 103 " clip-rule="nonzero"/></clipPath><clipPath id="762cb16411"><path d="M 91.375 101.730469 L 241.613281 77.074219 L 269.550781 247.296875 L 119.308594 271.953125 Z M 91.375 101.730469 " clip-rule="nonzero"/></clipPath><clipPath id="a03f171d3a"><path d="M 91.375 101.730469 L 241.613281 77.074219 L 269.550781 247.296875 L 119.308594 271.953125 Z M 91.375 101.730469 " clip-rule="nonzero"/></clipPath><clipPath id="f660e0dd6d"><path d="M 132 102 L 181 102 L 181 158 L 132 158 Z M 132 102 " clip-rule="nonzero"/></clipPath><clipPath id="0f58216f26"><path d="M 91.375 101.730469 L 241.613281 77.074219 L 269.550781 247.296875 L 119.308594 271.953125 Z M 91.375 101.730469 " clip-rule="nonzero"/></clipPath><clipPath id="b3bb84da07"><path d="M 91.375 101.730469 L 241.613281 77.074219 L 269.550781 247.296875 L 119.308594 271.953125 Z M 91.375 101.730469 " clip-rule="nonzero"/></clipPath><clipPath id="4ca5e45397"><path d="M 132 103 L 181 103 L 181 158 L 132 158 Z M 132 103 " clip-rule="nonzero"/></clipPath><clipPath id="0635a73800"><path d="M 91.375 101.730469 L 241.613281 77.074219 L 269.550781 247.296875 L 119.308594 271.953125 Z M 91.375 101.730469 " clip-rule="nonzero"/></clipPath><clipPath id="fd3e467a1c"><path d="M 91.375 101.730469 L 241.613281 77.074219 L 269.550781 247.296875 L 119.308594 271.953125 Z M 91.375 101.730469 " clip-rule="nonzero"/></clipPath><clipPath id="5995f5f3f8"><path d="M 132 141 L 155 141 L 155 145 L 132 145 Z M 132 141 " clip-rule="nonzero"/></clipPath><clipPath id="766a0c76b5"><path d="M 91.375 101.730469 L 241.613281 77.074219 L 269.550781 247.296875 L 119.308594 271.953125 Z M 91.375 101.730469 " clip-rule="nonzero"/></clipPath><clipPath id="62ea3fe181"><path d="M 91.375 101.730469 L 241.613281 77.074219 L 269.550781 247.296875 L 119.308594 271.953125 Z M 91.375 101.730469 " clip-rule="nonzero"/></clipPath><clipPath id="c5c8ba2114"><path d="M 137 124 L 163 124 L 163 131 L 137 131 Z M 137 124 " clip-rule="nonzero"/></clipPath><clipPath id="c848e6d284"><path d="M 91.375 101.730469 L 241.613281 77.074219 L 269.550781 247.296875 L 119.308594 271.953125 Z M 91.375 101.730469 " clip-rule="nonzero"/></clipPath><clipPath id="0ca9c59a3a"><path d="M 91.375 101.730469 L 241.613281 77.074219 L 269.550781 247.296875 L 119.308594 271.953125 Z M 91.375 101.730469 " clip-rule="nonzero"/></clipPath><clipPath id="dd0d05a88a"><path d="M 165 118 L 176 118 L 176 133 L 165 133 Z M 165 118 " clip-rule="nonzero"/></clipPath><clipPath id="bd649830b0"><path d="M 91.375 101.730469 L 241.613281 77.074219 L 269.550781 247.296875 L 119.308594 271.953125 Z M 91.375 101.730469 " clip-rule="nonzero"/></clipPath><clipPath id="640a553fd8"><path d="M 91.375 101.730469 L 241.613281 77.074219 L 269.550781 247.296875 L 119.308594 271.953125 Z M 91.375 101.730469 " clip-rule="nonzero"/></clipPath><clipPath id="1934ee77de"><path d="M 158 131 L 163 131 L 163 148 L 158 148 Z M 158 131 " clip-rule="nonzero"/></clipPath><clipPath id="cd97d63a03"><path d="M 91.375 101.730469 L 241.613281 77.074219 L 269.550781 247.296875 L 119.308594 271.953125 Z M 91.375 101.730469 " clip-rule="nonzero"/></clipPath><clipPath id="1f3ea8a140"><path d="M 91.375 101.730469 L 241.613281 77.074219 L 269.550781 247.296875 L 119.308594 271.953125 Z M 91.375 101.730469 " clip-rule="nonzero"/></clipPath><clipPath id="2dead9440c"><path d="M 198 196 L 223 196 L 223 220 L 198 220 Z M 198 196 " clip-rule="nonzero"/></clipPath><clipPath id="8350de9734"><path d="M 91.375 101.730469 L 241.613281 77.074219 L 269.550781 247.296875 L 119.308594 271.953125 Z M 91.375 101.730469 " clip-rule="nonzero"/></clipPath><clipPath id="5a5cba44d4"><path d="M 91.375 101.730469 L 241.613281 77.074219 L 269.550781 247.296875 L 119.308594 271.953125 Z M 91.375 101.730469 " clip-rule="nonzero"/></clipPath><clipPath id="040f1d9791"><path d="M 198 195 L 223 195 L 223 221 L 198 221 Z M 198 195 " clip-rule="nonzero"/></clipPath><clipPath id="842f3b011b"><path d="M 91.375 101.730469 L 241.613281 77.074219 L 269.550781 247.296875 L 119.308594 271.953125 Z M 91.375 101.730469 " clip-rule="nonzero"/></clipPath><clipPath id="f70d6338a2"><path d="M 91.375 101.730469 L 241.613281 77.074219 L 269.550781 247.296875 L 119.308594 271.953125 Z M 91.375 101.730469 " clip-rule="nonzero"/></clipPath><clipPath id="3ab6e90e9f"><path d="M 198 199 L 217 199 L 217 218 L 198 218 Z M 198 199 " clip-rule="nonzero"/></clipPath><clipPath id="5f59d356b1"><path d="M 91.375 101.730469 L 241.613281 77.074219 L 269.550781 247.296875 L 119.308594 271.953125 Z M 91.375 101.730469 " clip-rule="nonzero"/></clipPath><clipPath id="e429530bb7"><path d="M 91.375 101.730469 L 241.613281 77.074219 L 269.550781 247.296875 L 119.308594 271.953125 Z M 91.375 101.730469 " clip-rule="nonzero"/></clipPath><clipPath id="9c01cbce4e"><path d="M 210 206 L 217 206 L 217 212 L 210 212 Z M 210 206 " clip-rule="nonzero"/></clipPath><clipPath id="8d26b8a074"><path d="M 91.375 101.730469 L 241.613281 77.074219 L 269.550781 247.296875 L 119.308594 271.953125 Z M 91.375 101.730469 " clip-rule="nonzero"/></clipPath><clipPath id="26236c89ae"><path d="M 91.375 101.730469 L 241.613281 77.074219 L 269.550781 247.296875 L 119.308594 271.953125 Z M 91.375 101.730469 " clip-rule="nonzero"/></clipPath><clipPath id="133145981d"><path d="M 220 194 L 245 194 L 245 218 L 220 218 Z M 220 194 " clip-rule="nonzero"/></clipPath><clipPath id="7a78d28151"><path d="M 91.375 101.730469 L 241.613281 77.074219 L 269.550781 247.296875 L 119.308594 271.953125 Z M 91.375 101.730469 " clip-rule="nonzero"/></clipPath><clipPath id="19dfcf8b78"><path d="M 91.375 101.730469 L 241.613281 77.074219 L 269.550781 247.296875 L 119.308594 271.953125 Z M 91.375 101.730469 " clip-rule="nonzero"/></clipPath><clipPath id="09c9d976bd"><path d="M 220 193 L 245 193 L 245 219 L 220 219 Z M 220 193 " clip-rule="nonzero"/></clipPath><clipPath id="d77e8c6f90"><path d="M 91.375 101.730469 L 241.613281 77.074219 L 269.550781 247.296875 L 119.308594 271.953125 Z M 91.375 101.730469 " clip-rule="nonzero"/></clipPath><clipPath id="b916edcf48"><path d="M 91.375 101.730469 L 241.613281 77.074219 L 269.550781 247.296875 L 119.308594 271.953125 Z M 91.375 101.730469 " clip-rule="nonzero"/></clipPath><clipPath id="071f7f67fb"><path d="M 220 197 L 239 197 L 239 216 L 220 216 Z M 220 197 " clip-rule="nonzero"/></clipPath><clipPath id="5ee4f1203d"><path d="M 91.375 101.730469 L 241.613281 77.074219 L 269.550781 247.296875 L 119.308594 271.953125 Z M 91.375 101.730469 " clip-rule="nonzero"/></clipPath><clipPath id="8bb9529975"><path d="M 91.375 101.730469 L 241.613281 77.074219 L 269.550781 247.296875 L 119.308594 271.953125 Z M 91.375 101.730469 " clip-rule="nonzero"/></clipPath><clipPath id="a7a2e980bf"><path d="M 232 204 L 239 204 L 239 210 L 232 210 Z M 232 204 " clip-rule="nonzero"/></clipPath><clipPath id="d4fdcf3e33"><path d="M 91.375 101.730469 L 241.613281 77.074219 L 269.550781 247.296875 L 119.308594 271.953125 Z M 91.375 101.730469 " clip-rule="nonzero"/></clipPath><clipPath id="89c2f76114"><path d="M 91.375 101.730469 L 241.613281 77.074219 L 269.550781 247.296875 L 119.308594 271.953125 Z M 91.375 101.730469 " clip-rule="nonzero"/></clipPath><clipPath id="5f7879bd0f"><path d="M 218 212 L 227 212 L 227 220 L 218 220 Z M 218 212 " clip-rule="nonzero"/></clipPath><clipPath id="1950ddd10c"><path d="M 91.375 101.730469 L 241.613281 77.074219 L 269.550781 247.296875 L 119.308594 271.953125 Z M 91.375 101.730469 " clip-rule="nonzero"/></clipPath><clipPath id="752c651abd"><path d="M 91.375 101.730469 L 241.613281 77.074219 L 269.550781 247.296875 L 119.308594 271.953125 Z M 91.375 101.730469 " clip-rule="nonzero"/></clipPath><clipPath id="748ec7dc73"><path d="M 217 212 L 227 212 L 227 220 L 217 220 Z M 217 212 " clip-rule="nonzero"/></clipPath><clipPath id="e1e08e081d"><path d="M 91.375 101.730469 L 241.613281 77.074219 L 269.550781 247.296875 L 119.308594 271.953125 Z M 91.375 101.730469 " clip-rule="nonzero"/></clipPath><clipPath id="287a7b2ab3"><path d="M 91.375 101.730469 L 241.613281 77.074219 L 269.550781 247.296875 L 119.308594 271.953125 Z M 91.375 101.730469 " clip-rule="nonzero"/></clipPath><clipPath id="38b14ed45d"><path d="M 212 224 L 237 224 L 237 230 L 212 230 Z M 212 224 " clip-rule="nonzero"/></clipPath><clipPath id="868a6513fe"><path d="M 91.375 101.730469 L 241.613281 77.074219 L 269.550781 247.296875 L 119.308594 271.953125 Z M 91.375 101.730469 " clip-rule="nonzero"/></clipPath><clipPath id="d9cc6e4181"><path d="M 91.375 101.730469 L 241.613281 77.074219 L 269.550781 247.296875 L 119.308594 271.953125 Z M 91.375 101.730469 " clip-rule="nonzero"/></clipPath><clipPath id="000b0f3b11"><path d="M 234 220 L 243 220 L 243 226 L 234 226 Z M 234 220 " clip-rule="nonzero"/></clipPath><clipPath id="ed312025a4"><path d="M 91.375 101.730469 L 241.613281 77.074219 L 269.550781 247.296875 L 119.308594 271.953125 Z M 91.375 101.730469 " clip-rule="nonzero"/></clipPath><clipPath id="28dac4a9a5"><path d="M 91.375 101.730469 L 241.613281 77.074219 L 269.550781 247.296875 L 119.308594 271.953125 Z M 91.375 101.730469 " clip-rule="nonzero"/></clipPath><clipPath id="018279e002"><path d="M 237 219 L 239 219 L 239 222 L 237 222 Z M 237 219 " clip-rule="nonzero"/></clipPath><clipPath id="b834d3b5b2"><path d="M 91.375 101.730469 L 241.613281 77.074219 L 269.550781 247.296875 L 119.308594 271.953125 Z M 91.375 101.730469 " clip-rule="nonzero"/></clipPath><clipPath id="9124440035"><path d="M 91.375 101.730469 L 241.613281 77.074219 L 269.550781 247.296875 L 119.308594 271.953125 Z M 91.375 101.730469 " clip-rule="nonzero"/></clipPath><clipPath id="1e85d83a4d"><path d="M 238 222 L 240 222 L 240 224 L 238 224 Z M 238 222 " clip-rule="nonzero"/></clipPath><clipPath id="7be192fbce"><path d="M 91.375 101.730469 L 241.613281 77.074219 L 269.550781 247.296875 L 119.308594 271.953125 Z M 91.375 101.730469 " clip-rule="nonzero"/></clipPath><clipPath id="1aaf05b2c4"><path d="M 91.375 101.730469 L 241.613281 77.074219 L 269.550781 247.296875 L 119.308594 271.953125 Z M 91.375 101.730469 " clip-rule="nonzero"/></clipPath><clipPath id="99c2af4a6b"><path d="M 240 220 L 242 220 L 242 222 L 240 222 Z M 240 220 " clip-rule="nonzero"/></clipPath><clipPath id="d95dd586e7"><path d="M 91.375 101.730469 L 241.613281 77.074219 L 269.550781 247.296875 L 119.308594 271.953125 Z M 91.375 101.730469 " clip-rule="nonzero"/></clipPath><clipPath id="fe0cd3511b"><path d="M 91.375 101.730469 L 241.613281 77.074219 L 269.550781 247.296875 L 119.308594 271.953125 Z M 91.375 101.730469 " clip-rule="nonzero"/></clipPath><clipPath id="6836ff6e77"><path d="M 207 221 L 214 221 L 214 229 L 207 229 Z M 207 221 " clip-rule="nonzero"/></clipPath><clipPath id="084329e3c0"><path d="M 91.375 101.730469 L 241.613281 77.074219 L 269.550781 247.296875 L 119.308594 271.953125 Z M 91.375 101.730469 " clip-rule="nonzero"/></clipPath><clipPath id="dc8e10f292"><path d="M 91.375 101.730469 L 241.613281 77.074219 L 269.550781 247.296875 L 119.308594 271.953125 Z M 91.375 101.730469 " clip-rule="nonzero"/></clipPath><clipPath id="d3b87b33bb"><path d="M 210 221 L 212 221 L 212 224 L 210 224 Z M 210 221 " clip-rule="nonzero"/></clipPath><clipPath id="c237759cdd"><path d="M 91.375 101.730469 L 241.613281 77.074219 L 269.550781 247.296875 L 119.308594 271.953125 Z M 91.375 101.730469 " clip-rule="nonzero"/></clipPath><clipPath id="fe36af9931"><path d="M 91.375 101.730469 L 241.613281 77.074219 L 269.550781 247.296875 L 119.308594 271.953125 Z M 91.375 101.730469 " clip-rule="nonzero"/></clipPath><clipPath id="81ad04310c"><path d="M 208 224 L 211 224 L 211 226 L 208 226 Z M 208 224 " clip-rule="nonzero"/></clipPath><clipPath id="782e75c260"><path d="M 91.375 101.730469 L 241.613281 77.074219 L 269.550781 247.296875 L 119.308594 271.953125 Z M 91.375 101.730469 " clip-rule="nonzero"/></clipPath><clipPath id="48fa23f74a"><path d="M 91.375 101.730469 L 241.613281 77.074219 L 269.550781 247.296875 L 119.308594 271.953125 Z M 91.375 101.730469 " clip-rule="nonzero"/></clipPath><clipPath id="d5b0796703"><path d="M 206 223 L 208 223 L 208 225 L 206 225 Z M 206 223 " clip-rule="nonzero"/></clipPath><clipPath id="96ad154423"><path d="M 91.375 101.730469 L 241.613281 77.074219 L 269.550781 247.296875 L 119.308594 271.953125 Z M 91.375 101.730469 " clip-rule="nonzero"/></clipPath><clipPath id="48f1b1ceea"><path d="M 91.375 101.730469 L 241.613281 77.074219 L 269.550781 247.296875 L 119.308594 271.953125 Z M 91.375 101.730469 " clip-rule="nonzero"/></clipPath><clipPath id="4650af8d17"><path d="M 154 204 L 179 204 L 179 228 L 154 228 Z M 154 204 " clip-rule="nonzero"/></clipPath><clipPath id="1269176501"><path d="M 91.375 101.730469 L 241.613281 77.074219 L 269.550781 247.296875 L 119.308594 271.953125 Z M 91.375 101.730469 " clip-rule="nonzero"/></clipPath><clipPath id="bda613cb66"><path d="M 91.375 101.730469 L 241.613281 77.074219 L 269.550781 247.296875 L 119.308594 271.953125 Z M 91.375 101.730469 " clip-rule="nonzero"/></clipPath><clipPath id="c4da9cdaba"><path d="M 154 204 L 179 204 L 179 229 L 154 229 Z M 154 204 " clip-rule="nonzero"/></clipPath><clipPath id="4794de5f44"><path d="M 91.375 101.730469 L 241.613281 77.074219 L 269.550781 247.296875 L 119.308594 271.953125 Z M 91.375 101.730469 " clip-rule="nonzero"/></clipPath><clipPath id="f302fc4c96"><path d="M 91.375 101.730469 L 241.613281 77.074219 L 269.550781 247.296875 L 119.308594 271.953125 Z M 91.375 101.730469 " clip-rule="nonzero"/></clipPath><clipPath id="27bf3f49fa"><path d="M 160 206 L 179 206 L 179 225 L 160 225 Z M 160 206 " clip-rule="nonzero"/></clipPath><clipPath id="7e24869fcc"><path d="M 91.375 101.730469 L 241.613281 77.074219 L 269.550781 247.296875 L 119.308594 271.953125 Z M 91.375 101.730469 " clip-rule="nonzero"/></clipPath><clipPath id="890525837b"><path d="M 91.375 101.730469 L 241.613281 77.074219 L 269.550781 247.296875 L 119.308594 271.953125 Z M 91.375 101.730469 " clip-rule="nonzero"/></clipPath><clipPath id="cc1067be31"><path d="M 160 216 L 167 216 L 167 222 L 160 222 Z M 160 216 " clip-rule="nonzero"/></clipPath><clipPath id="b9bb677303"><path d="M 91.375 101.730469 L 241.613281 77.074219 L 269.550781 247.296875 L 119.308594 271.953125 Z M 91.375 101.730469 " clip-rule="nonzero"/></clipPath><clipPath id="dd8b342e3d"><path d="M 91.375 101.730469 L 241.613281 77.074219 L 269.550781 247.296875 L 119.308594 271.953125 Z M 91.375 101.730469 " clip-rule="nonzero"/></clipPath><clipPath id="e82396a335"><path d="M 132 209 L 157 209 L 157 234 L 132 234 Z M 132 209 " clip-rule="nonzero"/></clipPath><clipPath id="546e205be7"><path d="M 91.375 101.730469 L 241.613281 77.074219 L 269.550781 247.296875 L 119.308594 271.953125 Z M 91.375 101.730469 " clip-rule="nonzero"/></clipPath><clipPath id="0d1cbddf22"><path d="M 91.375 101.730469 L 241.613281 77.074219 L 269.550781 247.296875 L 119.308594 271.953125 Z M 91.375 101.730469 " clip-rule="nonzero"/></clipPath><clipPath id="20cfdec8bf"><path d="M 139 211 L 157 211 L 157 230 L 139 230 Z M 139 211 " clip-rule="nonzero"/></clipPath><clipPath id="1967d2b7dc"><path d="M 91.375 101.730469 L 241.613281 77.074219 L 269.550781 247.296875 L 119.308594 271.953125 Z M 91.375 101.730469 " clip-rule="nonzero"/></clipPath><clipPath id="0df0660b68"><path d="M 91.375 101.730469 L 241.613281 77.074219 L 269.550781 247.296875 L 119.308594 271.953125 Z M 91.375 101.730469 " clip-rule="nonzero"/></clipPath><clipPath id="143190fb6d"><path d="M 139 211 L 157 211 L 157 231 L 139 231 Z M 139 211 " clip-rule="nonzero"/></clipPath><clipPath id="4f27ce23c3"><path d="M 91.375 101.730469 L 241.613281 77.074219 L 269.550781 247.296875 L 119.308594 271.953125 Z M 91.375 101.730469 " clip-rule="nonzero"/></clipPath><clipPath id="efa755e831"><path d="M 91.375 101.730469 L 241.613281 77.074219 L 269.550781 247.296875 L 119.308594 271.953125 Z M 91.375 101.730469 " clip-rule="nonzero"/></clipPath><clipPath id="0f31e4f6cc"><path d="M 138 221 L 145 221 L 145 227 L 138 227 Z M 138 221 " clip-rule="nonzero"/></clipPath><clipPath id="d740972a05"><path d="M 91.375 101.730469 L 241.613281 77.074219 L 269.550781 247.296875 L 119.308594 271.953125 Z M 91.375 101.730469 " clip-rule="nonzero"/></clipPath><clipPath id="fce54b66d1"><path d="M 91.375 101.730469 L 241.613281 77.074219 L 269.550781 247.296875 L 119.308594 271.953125 Z M 91.375 101.730469 " clip-rule="nonzero"/></clipPath><clipPath id="7b8339dad5"><path d="M 128 213 L 135 213 L 135 216 L 128 216 Z M 128 213 " clip-rule="nonzero"/></clipPath><clipPath id="8ab1230063"><path d="M 91.375 101.730469 L 241.613281 77.074219 L 269.550781 247.296875 L 119.308594 271.953125 Z M 91.375 101.730469 " clip-rule="nonzero"/></clipPath><clipPath id="b2eb991cf0"><path d="M 91.375 101.730469 L 241.613281 77.074219 L 269.550781 247.296875 L 119.308594 271.953125 Z M 91.375 101.730469 " clip-rule="nonzero"/></clipPath><clipPath id="0c47f48ef6"><path d="M 127 216 L 134 216 L 134 220 L 127 220 Z M 127 216 " clip-rule="nonzero"/></clipPath><clipPath id="f55be5e151"><path d="M 91.375 101.730469 L 241.613281 77.074219 L 269.550781 247.296875 L 119.308594 271.953125 Z M 91.375 101.730469 " clip-rule="nonzero"/></clipPath><clipPath id="c817cb1947"><path d="M 91.375 101.730469 L 241.613281 77.074219 L 269.550781 247.296875 L 119.308594 271.953125 Z M 91.375 101.730469 " clip-rule="nonzero"/></clipPath><clipPath id="ecade54d0c"><path d="M 126 220 L 134 220 L 134 223 L 126 223 Z M 126 220 " clip-rule="nonzero"/></clipPath><clipPath id="fd22650b72"><path d="M 91.375 101.730469 L 241.613281 77.074219 L 269.550781 247.296875 L 119.308594 271.953125 Z M 91.375 101.730469 " clip-rule="nonzero"/></clipPath><clipPath id="6838944a7a"><path d="M 91.375 101.730469 L 241.613281 77.074219 L 269.550781 247.296875 L 119.308594 271.953125 Z M 91.375 101.730469 " clip-rule="nonzero"/></clipPath><clipPath id="565d68640b"><path d="M 173 202 L 179 202 L 179 207 L 173 207 Z M 173 202 " clip-rule="nonzero"/></clipPath><clipPath id="9374c3c480"><path d="M 91.375 101.730469 L 241.613281 77.074219 L 269.550781 247.296875 L 119.308594 271.953125 Z M 91.375 101.730469 " clip-rule="nonzero"/></clipPath><clipPath id="8010d7a4e7"><path d="M 91.375 101.730469 L 241.613281 77.074219 L 269.550781 247.296875 L 119.308594 271.953125 Z M 91.375 101.730469 " clip-rule="nonzero"/></clipPath><clipPath id="6ac90030d7"><path d="M 175 205 L 181 205 L 181 210 L 175 210 Z M 175 205 " clip-rule="nonzero"/></clipPath><clipPath id="ee953301fe"><path d="M 91.375 101.730469 L 241.613281 77.074219 L 269.550781 247.296875 L 119.308594 271.953125 Z M 91.375 101.730469 " clip-rule="nonzero"/></clipPath><clipPath id="efe597a716"><path d="M 91.375 101.730469 L 241.613281 77.074219 L 269.550781 247.296875 L 119.308594 271.953125 Z M 91.375 101.730469 " clip-rule="nonzero"/></clipPath><clipPath id="c195fff7b4"><path d="M 176 208 L 183 208 L 183 213 L 176 213 Z M 176 208 " clip-rule="nonzero"/></clipPath><clipPath id="544624e9a6"><path d="M 91.375 101.730469 L 241.613281 77.074219 L 269.550781 247.296875 L 119.308594 271.953125 Z M 91.375 101.730469 " clip-rule="nonzero"/></clipPath><clipPath id="ad9ecec2a1"><path d="M 91.375 101.730469 L 241.613281 77.074219 L 269.550781 247.296875 L 119.308594 271.953125 Z M 91.375 101.730469 " clip-rule="nonzero"/></clipPath><clipPath id="5eae98791b"><path d="M 153 224 L 162 224 L 162 231 L 153 231 Z M 153 224 " clip-rule="nonzero"/></clipPath><clipPath id="ddf5f989bc"><path d="M 91.375 101.730469 L 241.613281 77.074219 L 269.550781 247.296875 L 119.308594 271.953125 Z M 91.375 101.730469 " clip-rule="nonzero"/></clipPath><clipPath id="7d1094ec72"><path d="M 91.375 101.730469 L 241.613281 77.074219 L 269.550781 247.296875 L 119.308594 271.953125 Z M 91.375 101.730469 " clip-rule="nonzero"/></clipPath><clipPath id="312d794ff0"><path d="M 153 223 L 163 223 L 163 231 L 153 231 Z M 153 223 " clip-rule="nonzero"/></clipPath><clipPath id="fc2b568e86"><path d="M 91.375 101.730469 L 241.613281 77.074219 L 269.550781 247.296875 L 119.308594 271.953125 Z M 91.375 101.730469 " clip-rule="nonzero"/></clipPath><clipPath id="4b05a3e430"><path d="M 91.375 101.730469 L 241.613281 77.074219 L 269.550781 247.296875 L 119.308594 271.953125 Z M 91.375 101.730469 " clip-rule="nonzero"/></clipPath><clipPath id="f0a3158676"><path d="M 147 234 L 172 234 L 172 242 L 147 242 Z M 147 234 " clip-rule="nonzero"/></clipPath><clipPath id="a5b2eb74c3"><path d="M 91.375 101.730469 L 241.613281 77.074219 L 269.550781 247.296875 L 119.308594 271.953125 Z M 91.375 101.730469 " clip-rule="nonzero"/></clipPath><clipPath id="4d67cfd6f4"><path d="M 91.375 101.730469 L 241.613281 77.074219 L 269.550781 247.296875 L 119.308594 271.953125 Z M 91.375 101.730469 " clip-rule="nonzero"/></clipPath><clipPath id="f21a271fcb"><path d="M 168 230 L 177 230 L 177 236 L 168 236 Z M 168 230 " clip-rule="nonzero"/></clipPath><clipPath id="19ea8e9279"><path d="M 91.375 101.730469 L 241.613281 77.074219 L 269.550781 247.296875 L 119.308594 271.953125 Z M 91.375 101.730469 " clip-rule="nonzero"/></clipPath><clipPath id="3502c87b87"><path d="M 91.375 101.730469 L 241.613281 77.074219 L 269.550781 247.296875 L 119.308594 271.953125 Z M 91.375 101.730469 " clip-rule="nonzero"/></clipPath><clipPath id="d9a65697ca"><path d="M 170 229 L 172 229 L 172 232 L 170 232 Z M 170 229 " clip-rule="nonzero"/></clipPath><clipPath id="3f66a74eb5"><path d="M 91.375 101.730469 L 241.613281 77.074219 L 269.550781 247.296875 L 119.308594 271.953125 Z M 91.375 101.730469 " clip-rule="nonzero"/></clipPath><clipPath id="b15662f49d"><path d="M 91.375 101.730469 L 241.613281 77.074219 L 269.550781 247.296875 L 119.308594 271.953125 Z M 91.375 101.730469 " clip-rule="nonzero"/></clipPath><clipPath id="48cd14dbb9"><path d="M 172 231 L 174 231 L 174 234 L 172 234 Z M 172 231 " clip-rule="nonzero"/></clipPath><clipPath id="e53ded7cdd"><path d="M 91.375 101.730469 L 241.613281 77.074219 L 269.550781 247.296875 L 119.308594 271.953125 Z M 91.375 101.730469 " clip-rule="nonzero"/></clipPath><clipPath id="7047c4a0f9"><path d="M 91.375 101.730469 L 241.613281 77.074219 L 269.550781 247.296875 L 119.308594 271.953125 Z M 91.375 101.730469 " clip-rule="nonzero"/></clipPath><clipPath id="786fbe30b0"><path d="M 174 229 L 176 229 L 176 231 L 174 231 Z M 174 229 " clip-rule="nonzero"/></clipPath><clipPath id="69674ad760"><path d="M 91.375 101.730469 L 241.613281 77.074219 L 269.550781 247.296875 L 119.308594 271.953125 Z M 91.375 101.730469 " clip-rule="nonzero"/></clipPath><clipPath id="b4b118e42d"><path d="M 91.375 101.730469 L 241.613281 77.074219 L 269.550781 247.296875 L 119.308594 271.953125 Z M 91.375 101.730469 " clip-rule="nonzero"/></clipPath><clipPath id="25e98642c2"><path d="M 142 234 L 149 234 L 149 243 L 142 243 Z M 142 234 " clip-rule="nonzero"/></clipPath><clipPath id="b687bb88f4"><path d="M 91.375 101.730469 L 241.613281 77.074219 L 269.550781 247.296875 L 119.308594 271.953125 Z M 91.375 101.730469 " clip-rule="nonzero"/></clipPath><clipPath id="2ddd75e72a"><path d="M 91.375 101.730469 L 241.613281 77.074219 L 269.550781 247.296875 L 119.308594 271.953125 Z M 91.375 101.730469 " clip-rule="nonzero"/></clipPath><clipPath id="da4f6baa7a"><path d="M 144 235 L 146 235 L 146 237 L 144 237 Z M 144 235 " clip-rule="nonzero"/></clipPath><clipPath id="43deb4c481"><path d="M 91.375 101.730469 L 241.613281 77.074219 L 269.550781 247.296875 L 119.308594 271.953125 Z M 91.375 101.730469 " clip-rule="nonzero"/></clipPath><clipPath id="ab6cdbaf5d"><path d="M 91.375 101.730469 L 241.613281 77.074219 L 269.550781 247.296875 L 119.308594 271.953125 Z M 91.375 101.730469 " clip-rule="nonzero"/></clipPath><clipPath id="54d744eecb"><path d="M 143 238 L 145 238 L 145 240 L 143 240 Z M 143 238 " clip-rule="nonzero"/></clipPath><clipPath id="f7121f579b"><path d="M 91.375 101.730469 L 241.613281 77.074219 L 269.550781 247.296875 L 119.308594 271.953125 Z M 91.375 101.730469 " clip-rule="nonzero"/></clipPath><clipPath id="0e5a6b4fd2"><path d="M 91.375 101.730469 L 241.613281 77.074219 L 269.550781 247.296875 L 119.308594 271.953125 Z M 91.375 101.730469 " clip-rule="nonzero"/></clipPath><clipPath id="8ac8e2dbc0"><path d="M 141 237 L 143 237 L 143 239 L 141 239 Z M 141 237 " clip-rule="nonzero"/></clipPath><clipPath id="283f833b4a"><path d="M 91.375 101.730469 L 241.613281 77.074219 L 269.550781 247.296875 L 119.308594 271.953125 Z M 91.375 101.730469 " clip-rule="nonzero"/></clipPath><clipPath id="6ffef515b0"><path d="M 91.375 101.730469 L 241.613281 77.074219 L 269.550781 247.296875 L 119.308594 271.953125 Z M 91.375 101.730469 " clip-rule="nonzero"/></clipPath></defs><g clip-path="url(#af60edc056)"><g clip-path="url(#96d50bf388)"><g clip-path="url(#8d266c67d7)"><path fill="#d62700" d="M 185.242188 197.226562 C 169.820312 180.605469 132.867188 184.976562 122.273438 206.511719 C 111.996094 227.398438 128.960938 259.4375 152.28125 261.8125 C 169.054688 263.523438 185.160156 249.480469 190.570312 233.511719 C 194.085938 223.128906 194.636719 207.34375 185.242188 197.226562 Z M 185.242188 197.226562 " fill-opacity="1" fill-rule="nonzero"/></g></g></g><g clip-path="url(#338476a86d)"><g clip-path="url(#2d697585d4)"><g clip-path="url(#cc6e22a303)"><path fill="#000000" d="M 159.847656 261.9375 C 157.367188 262.347656 154.828125 262.445312 152.246094 262.179688 C 141.421875 261.078125 131.105469 253.464844 124.652344 241.816406 C 118.066406 229.933594 117.027344 216.34375 121.945312 206.351562 C 126.84375 196.386719 137.867188 189.253906 151.417969 187.265625 C 165.039062 185.269531 178.105469 188.992188 185.515625 196.976562 C 189.820312 201.609375 192.449219 207.921875 193.117188 215.238281 C 193.671875 221.285156 192.890625 227.816406 190.921875 233.632812 C 186.460938 246.800781 174.234375 259.578125 159.847656 261.9375 Z M 150.667969 188.125 C 137.746094 190.246094 127.296875 197.136719 122.605469 206.671875 C 117.792969 216.453125 118.824219 229.777344 125.292969 241.457031 C 131.632812 252.894531 141.734375 260.367188 152.320312 261.449219 C 165.816406 262.820312 183.679688 252.707031 190.222656 233.394531 C 193.960938 222.359375 193.789062 206.972656 184.976562 197.476562 C 177.726562 189.664062 164.910156 186.03125 151.527344 187.992188 C 151.238281 188.035156 150.953125 188.078125 150.667969 188.125 Z M 150.667969 188.125 " fill-opacity="1" fill-rule="nonzero"/></g></g></g><g clip-path="url(#e2a05eb868)"><g clip-path="url(#f07f39a613)"><g clip-path="url(#fcec546aa2)"><path fill="#000000" d="M 149.132812 197.398438 C 146.453125 197.835938 143.703125 197.898438 141.015625 197.574219 C 140.8125 197.550781 140.671875 197.367188 140.695312 197.164062 C 140.714844 196.960938 140.902344 196.816406 141.105469 196.84375 C 145.035156 197.320312 149.101562 196.941406 152.863281 195.753906 C 156.382812 194.640625 159.597656 192.871094 162.425781 190.484375 C 162.582031 190.355469 162.816406 190.371094 162.945312 190.53125 C 163.074219 190.683594 163.058594 190.917969 162.898438 191.050781 C 160 193.5 156.695312 195.316406 153.085938 196.457031 C 151.796875 196.863281 150.472656 197.179688 149.132812 197.398438 Z M 149.132812 197.398438 " fill-opacity="1" fill-rule="nonzero"/></g></g></g><g clip-path="url(#1a3dac125d)"><g clip-path="url(#b2c2b9f8a5)"><g clip-path="url(#a7b4500dac)"><path fill="#d62700" d="M 251.871094 186.292969 C 236.445312 169.671875 199.496094 174.042969 188.902344 195.574219 C 178.625 216.460938 195.589844 248.503906 218.910156 250.878906 C 235.683594 252.589844 251.789062 238.546875 257.199219 222.578125 C 260.714844 212.195312 261.265625 196.410156 251.871094 186.292969 Z M 251.871094 186.292969 " fill-opacity="1" fill-rule="nonzero"/></g></g></g><g clip-path="url(#9a5600c58c)"><g clip-path="url(#dc6654b905)"><g clip-path="url(#1e1394693e)"><path fill="#000000" d="M 226.476562 251.003906 C 223.996094 251.410156 221.453125 251.511719 218.875 251.246094 C 208.050781 250.140625 197.734375 242.53125 191.277344 230.878906 C 184.695312 218.996094 183.65625 205.410156 188.574219 195.417969 C 193.476562 185.453125 204.480469 178.316406 218.050781 176.332031 C 231.671875 174.335938 244.734375 178.058594 252.148438 186.039062 C 256.453125 190.675781 259.078125 196.988281 259.75 204.304688 C 260.304688 210.347656 259.523438 216.882812 257.550781 222.699219 C 253.085938 235.867188 240.863281 248.644531 226.476562 251.003906 Z M 217.296875 177.191406 C 204.375 179.3125 193.925781 186.203125 189.234375 195.738281 C 184.421875 205.519531 185.449219 218.84375 191.921875 230.519531 C 198.261719 241.960938 208.363281 249.433594 218.949219 250.515625 C 232.441406 251.886719 250.308594 241.773438 256.851562 222.457031 C 260.589844 211.421875 260.417969 196.035156 251.601562 186.542969 C 244.351562 178.730469 231.539062 175.097656 218.15625 177.058594 C 217.867188 177.101562 217.578125 177.144531 217.296875 177.191406 Z M 217.296875 177.191406 " fill-opacity="1" fill-rule="nonzero"/></g></g></g><g clip-path="url(#81ff08528d)"><g clip-path="url(#bef413c9c4)"><g clip-path="url(#1fcf8e467d)"><path fill="#000000" d="M 224.75 187.179688 C 223.40625 187.398438 222.054688 187.523438 220.703125 187.546875 C 216.917969 187.617188 213.207031 186.949219 209.675781 185.558594 C 209.488281 185.484375 209.390625 185.269531 209.464844 185.082031 C 209.539062 184.894531 209.75 184.800781 209.941406 184.875 C 213.382812 186.230469 217 186.878906 220.6875 186.808594 C 224.632812 186.734375 228.605469 185.789062 232.179688 184.082031 C 232.363281 183.992188 232.582031 184.074219 232.671875 184.257812 C 232.761719 184.4375 232.679688 184.65625 232.496094 184.746094 C 230.054688 185.917969 227.429688 186.738281 224.75 187.179688 Z M 224.75 187.179688 " fill-opacity="1" fill-rule="nonzero"/></g></g></g><g clip-path="url(#a12048a949)"><g clip-path="url(#1b69a3a6ec)"><g clip-path="url(#cd24ff2ab5)"><path fill="#533010" d="M 148.816406 197.074219 C 145.921875 190.351562 140.074219 174.175781 143.863281 154.183594 C 149.898438 122.335938 175.527344 106.394531 179.867188 103.792969 C 179.53125 98.472656 179.195312 93.160156 178.859375 87.839844 C 181.699219 87.484375 184.542969 87.125 187.386719 86.765625 C 188.664062 91.914062 189.9375 97.058594 191.214844 102.199219 C 196.5625 105.535156 214.710938 117.753906 222.890625 142.078125 C 229.832031 162.734375 225.652344 180.414062 223.761719 186.949219 C 222.605469 187.140625 221.1875 187.289062 219.5625 187.25 C 218.066406 187.21875 216.75 187.039062 215.667969 186.820312 C 217.570312 182.011719 223.84375 164.480469 216.960938 143.832031 C 208.988281 119.921875 189.289062 109.535156 185.359375 107.5625 C 180.863281 110.398438 158.171875 125.351562 152.226562 154.554688 C 148.433594 173.171875 153.320312 188.378906 155.910156 194.980469 C 154.859375 195.449219 153.625 195.921875 152.222656 196.324219 C 150.992188 196.679688 149.84375 196.917969 148.816406 197.074219 Z M 148.816406 197.074219 " fill-opacity="1" fill-rule="nonzero"/></g></g></g><g clip-path="url(#29d713d83f)"><g clip-path="url(#398421e9aa)"><g clip-path="url(#5157cec5f5)"><path fill="#000000" d="M 223.730469 187.328125 C 222.355469 187.554688 220.953125 187.65625 219.5625 187.621094 C 218.234375 187.59375 216.902344 187.445312 215.59375 187.183594 C 215.488281 187.160156 215.398438 187.089844 215.34375 186.996094 C 215.289062 186.898438 215.28125 186.785156 215.328125 186.683594 C 217.863281 180.28125 223.066406 163.300781 216.613281 143.945312 C 209.347656 122.144531 192.5 111.59375 185.382812 107.988281 C 181.425781 110.503906 175.539062 114.847656 169.617188 121.421875 C 160.820312 131.183594 155.09375 142.355469 152.59375 154.632812 C 149.175781 171.417969 152.699219 185.769531 156.261719 194.851562 C 156.332031 195.035156 156.246094 195.242188 156.066406 195.324219 C 154.855469 195.863281 153.601562 196.320312 152.328125 196.683594 C 151.199219 197.007812 150.035156 197.257812 148.875 197.441406 C 148.707031 197.46875 148.546875 197.375 148.480469 197.21875 C 144.316406 187.546875 140.074219 172.222656 143.503906 154.113281 C 149.195312 124.078125 172.230469 107.980469 179.488281 103.589844 L 178.496094 87.859375 C 178.480469 87.664062 178.625 87.496094 178.816406 87.46875 L 187.34375 86.394531 C 187.53125 86.375 187.703125 86.492188 187.746094 86.671875 L 191.539062 101.964844 C 200.238281 107.40625 215.792969 119.792969 223.242188 141.960938 C 229.753906 161.339844 226.585938 178.527344 224.117188 187.050781 C 224.074219 187.1875 223.964844 187.289062 223.824219 187.3125 C 223.792969 187.320312 223.765625 187.324219 223.730469 187.328125 Z M 216.175781 186.542969 C 217.296875 186.746094 218.4375 186.859375 219.574219 186.886719 C 220.875 186.917969 222.1875 186.828125 223.472656 186.625 C 225.90625 178.113281 228.933594 161.21875 222.539062 142.199219 C 215.128906 120.140625 199.609375 107.867188 191.019531 102.515625 C 190.9375 102.464844 190.878906 102.386719 190.855469 102.292969 L 187.105469 87.175781 L 179.25 88.164062 L 180.234375 103.773438 C 180.242188 103.910156 180.171875 104.042969 180.054688 104.113281 C 173.085938 108.292969 149.90625 124.25 144.21875 154.257812 C 140.855469 172.015625 144.949219 187.078125 149.035156 196.667969 C 150.074219 196.5 151.109375 196.265625 152.121094 195.976562 C 153.246094 195.652344 154.355469 195.257812 155.4375 194.792969 C 151.886719 185.605469 148.453125 171.25 151.867188 154.488281 C 154.394531 142.082031 160.179688 130.785156 169.066406 120.929688 C 175.132812 114.191406 181.167969 109.773438 185.160156 107.253906 C 185.269531 107.183594 185.40625 107.179688 185.523438 107.238281 C 192.609375 110.789062 209.890625 121.460938 217.3125 143.714844 C 223.707031 162.902344 218.789062 179.773438 216.175781 186.542969 Z M 216.175781 186.542969 " fill-opacity="1" fill-rule="nonzero"/></g></g></g><g clip-path="url(#73aa66ecb8)"><g clip-path="url(#762cb16411)"><g clip-path="url(#a03f171d3a)"><path fill="#00926e" d="M 140.171875 126.8125 C 142.339844 124.328125 144.765625 122.480469 155.300781 116.433594 C 165.308594 110.695312 173.757812 106.261719 179.753906 103.214844 C 180.210938 106.167969 182.683594 124.046875 170.191406 139.761719 C 156.324219 157.210938 135.550781 157.464844 132.96875 157.453125 C 131.011719 139.082031 137.203125 130.222656 140.171875 126.8125 Z M 140.171875 126.8125 " fill-opacity="1" fill-rule="nonzero"/></g></g></g><g clip-path="url(#f660e0dd6d)"><g clip-path="url(#0f58216f26)"><g clip-path="url(#b3bb84da07)"><path fill="#000000" d="M 140.410156 157.175781 C 136.851562 157.761719 134.15625 157.828125 132.96875 157.824219 L 132.636719 157.820312 L 132.601562 157.496094 C 130.828125 140.882812 135.589844 131.511719 139.894531 126.570312 L 140.171875 126.8125 L 139.894531 126.570312 C 142.148438 123.984375 144.664062 122.109375 155.117188 116.113281 C 163.199219 111.480469 171.429688 107.027344 179.585938 102.882812 L 180.039062 102.652344 L 180.117188 103.152344 C 180.867188 108.003906 182.394531 124.996094 170.480469 139.984375 C 161.058594 151.851562 148.503906 155.847656 140.410156 157.175781 Z M 133.300781 157.089844 C 137.820312 157.058594 156.890625 155.910156 169.90625 139.535156 C 181.25 125.257812 180.210938 109.136719 179.464844 103.777344 C 171.464844 107.851562 163.402344 112.210938 155.484375 116.753906 C 145.125 122.695312 142.644531 124.539062 140.449219 127.054688 C 136.273438 131.851562 131.660156 140.949219 133.300781 157.089844 Z M 133.300781 157.089844 " fill-opacity="1" fill-rule="nonzero"/></g></g></g><g clip-path="url(#4ca5e45397)"><g clip-path="url(#0635a73800)"><g clip-path="url(#fd3e467a1c)"><path fill="#000000" d="M 133.03125 157.820312 C 132.875 157.847656 132.710938 157.769531 132.636719 157.621094 C 132.546875 157.4375 132.625 157.214844 132.808594 157.125 C 145.433594 150.90625 153.941406 143.058594 158.085938 133.800781 C 158.660156 132.519531 159.066406 131.410156 159.492188 130.238281 C 160.109375 128.546875 160.746094 126.804688 161.953125 124.363281 C 165.921875 116.34375 171.871094 109.320312 179.640625 103.496094 C 179.804688 103.375 180.035156 103.410156 180.15625 103.570312 C 180.277344 103.734375 180.25 103.960938 180.085938 104.085938 C 172.410156 109.839844 166.53125 116.769531 162.613281 124.6875 C 161.425781 127.09375 160.796875 128.816406 160.1875 130.484375 C 159.753906 131.675781 159.34375 132.796875 158.757812 134.097656 C 154.542969 143.515625 145.917969 151.484375 133.132812 157.78125 C 133.101562 157.800781 133.066406 157.816406 133.03125 157.820312 Z M 133.03125 157.820312 " fill-opacity="1" fill-rule="nonzero"/></g></g></g><g clip-path="url(#5995f5f3f8)"><g clip-path="url(#766a0c76b5)"><g clip-path="url(#62ea3fe181)"><path fill="#000000" d="M 153.757812 141.941406 C 153.753906 141.941406 153.75 141.941406 153.75 141.941406 L 133.007812 144.863281 C 132.808594 144.894531 132.621094 144.753906 132.589844 144.550781 C 132.5625 144.351562 132.707031 144.152344 132.902344 144.132812 L 153.644531 141.210938 C 153.847656 141.183594 154.035156 141.324219 154.0625 141.523438 C 154.089844 141.726562 153.953125 141.910156 153.757812 141.941406 Z M 153.757812 141.941406 " fill-opacity="1" fill-rule="nonzero"/></g></g></g><g clip-path="url(#c5c8ba2114)"><g clip-path="url(#c848e6d284)"><g clip-path="url(#0ca9c59a3a)"><path fill="#000000" d="M 138.308594 130.507812 C 138.121094 130.539062 137.933594 130.421875 137.890625 130.230469 C 137.84375 130.03125 137.964844 129.832031 138.164062 129.789062 L 162.203125 124.171875 C 162.402344 124.121094 162.597656 124.25 162.644531 124.449219 C 162.6875 124.648438 162.566406 124.847656 162.367188 124.890625 L 138.332031 130.503906 C 138.328125 130.503906 138.316406 130.507812 138.308594 130.507812 Z M 138.308594 130.507812 " fill-opacity="1" fill-rule="nonzero"/></g></g></g><g clip-path="url(#dd0d05a88a)"><g clip-path="url(#bd649830b0)"><g clip-path="url(#640a553fd8)"><path fill="#000000" d="M 175.371094 132.078125 C 175.238281 132.101562 175.09375 132.046875 175.007812 131.925781 L 165.734375 118.628906 C 165.617188 118.460938 165.65625 118.230469 165.828125 118.113281 C 165.992188 117.996094 166.222656 118.039062 166.339844 118.207031 L 175.613281 131.503906 C 175.730469 131.671875 175.691406 131.902344 175.523438 132.015625 C 175.480469 132.050781 175.425781 132.070312 175.371094 132.078125 Z M 175.371094 132.078125 " fill-opacity="1" fill-rule="nonzero"/></g></g></g><g clip-path="url(#1934ee77de)"><g clip-path="url(#cd97d63a03)"><g clip-path="url(#1f3ea8a140)"><path fill="#000000" d="M 162.570312 147.71875 C 162.378906 147.75 162.195312 147.625 162.152344 147.433594 L 158.882812 132.058594 C 158.839844 131.859375 158.96875 131.660156 159.167969 131.617188 C 159.371094 131.582031 159.5625 131.703125 159.605469 131.902344 L 162.871094 147.277344 C 162.917969 147.476562 162.789062 147.671875 162.589844 147.714844 C 162.582031 147.714844 162.574219 147.71875 162.570312 147.71875 Z M 162.570312 147.71875 " fill-opacity="1" fill-rule="nonzero"/></g></g></g><g clip-path="url(#2dead9440c)"><g clip-path="url(#8350de9734)"><g clip-path="url(#5a5cba44d4)"><path fill="#ffffff" d="M 222.273438 206.132812 C 223.066406 210.96875 220.777344 215.605469 216.839844 218.050781 C 215.554688 218.847656 214.089844 219.414062 212.5 219.671875 C 206.046875 220.734375 199.960938 216.382812 198.910156 209.96875 C 197.855469 203.546875 202.230469 197.488281 208.6875 196.429688 C 209.617188 196.277344 210.542969 196.234375 211.441406 196.300781 C 216.792969 196.664062 221.371094 200.640625 222.273438 206.132812 Z M 222.273438 206.132812 " fill-opacity="1" fill-rule="nonzero"/></g></g></g><g clip-path="url(#040f1d9791)"><g clip-path="url(#842f3b011b)"><g clip-path="url(#f70d6338a2)"><path fill="#000000" d="M 212.558594 220.039062 C 205.917969 221.128906 199.628906 216.636719 198.542969 210.023438 C 197.457031 203.414062 201.980469 197.152344 208.625 196.0625 C 209.566406 195.90625 210.523438 195.863281 211.464844 195.929688 C 217.128906 196.3125 221.71875 200.484375 222.636719 206.070312 C 223.433594 210.929688 221.238281 215.753906 217.035156 218.359375 C 215.667969 219.214844 214.160156 219.773438 212.558594 220.039062 Z M 208.746094 196.789062 C 202.503906 197.8125 198.253906 203.699219 199.273438 209.90625 C 200.289062 216.113281 206.195312 220.335938 212.441406 219.308594 C 213.945312 219.0625 215.363281 218.53125 216.648438 217.734375 C 220.59375 215.285156 222.660156 210.753906 221.914062 206.191406 C 221.050781 200.941406 216.734375 197.023438 211.414062 196.664062 C 210.527344 196.605469 209.628906 196.644531 208.746094 196.789062 Z M 208.746094 196.789062 " fill-opacity="1" fill-rule="nonzero"/></g></g></g><g clip-path="url(#3ab6e90e9f)"><g clip-path="url(#5f59d356b1)"><g clip-path="url(#e429530bb7)"><path fill="#000000" d="M 215.925781 207.175781 C 216.023438 207.757812 216.0625 208.339844 216.046875 208.929688 C 216.03125 209.515625 215.960938 210.09375 215.835938 210.667969 C 215.710938 211.238281 215.53125 211.792969 215.300781 212.324219 C 215.070312 212.859375 214.789062 213.363281 214.460938 213.839844 C 214.132812 214.316406 213.765625 214.753906 213.355469 215.152344 C 212.941406 215.550781 212.496094 215.902344 212.015625 216.210938 C 211.539062 216.515625 211.03125 216.773438 210.503906 216.976562 C 209.972656 217.179688 209.429688 217.328125 208.871094 217.417969 C 208.3125 217.507812 207.75 217.542969 207.183594 217.519531 C 206.617188 217.496094 206.058594 217.417969 205.503906 217.277344 C 204.953125 217.140625 204.417969 216.949219 203.898438 216.703125 C 203.382812 216.457031 202.894531 216.160156 202.429688 215.8125 C 201.96875 215.46875 201.542969 215.078125 201.152344 214.648438 C 200.761719 214.214844 200.417969 213.75 200.117188 213.246094 C 199.8125 212.746094 199.5625 212.21875 199.359375 211.667969 C 199.15625 211.113281 199.007812 210.550781 198.914062 209.96875 C 198.816406 209.386719 198.777344 208.804688 198.792969 208.214844 C 198.808594 207.628906 198.878906 207.046875 199.003906 206.476562 C 199.128906 205.90625 199.308594 205.351562 199.539062 204.816406 C 199.769531 204.285156 200.050781 203.78125 200.378906 203.304688 C 200.703125 202.828125 201.074219 202.390625 201.484375 201.992188 C 201.898438 201.59375 202.34375 201.242188 202.824219 200.933594 C 203.300781 200.625 203.808594 200.371094 204.335938 200.167969 C 204.867188 199.964844 205.410156 199.816406 205.96875 199.726562 C 206.527344 199.632812 207.089844 199.601562 207.65625 199.625 C 208.222656 199.648438 208.78125 199.726562 209.335938 199.863281 C 209.886719 200.003906 210.421875 200.195312 210.9375 200.441406 C 211.457031 200.6875 211.945312 200.984375 212.410156 201.328125 C 212.871094 201.675781 213.296875 202.0625 213.6875 202.496094 C 214.078125 202.929688 214.421875 203.394531 214.722656 203.898438 C 215.027344 204.398438 215.277344 204.925781 215.480469 205.476562 C 215.683594 206.027344 215.832031 206.59375 215.925781 207.175781 Z M 215.925781 207.175781 " fill-opacity="1" fill-rule="nonzero"/><path fill="#000000" d="M 208.902344 217.601562 C 204.109375 218.386719 199.546875 214.976562 198.730469 209.996094 C 197.914062 205.019531 201.144531 200.332031 205.9375 199.542969 C 210.730469 198.757812 215.292969 202.167969 216.109375 207.144531 C 216.925781 212.125 213.691406 216.8125 208.902344 217.601562 Z M 205.996094 199.90625 C 201.40625 200.660156 198.308594 205.160156 199.09375 209.9375 C 199.878906 214.714844 204.253906 217.988281 208.839844 217.234375 C 213.429688 216.484375 216.53125 211.984375 215.746094 207.207031 C 214.960938 202.425781 210.585938 199.15625 205.996094 199.90625 Z M 205.996094 199.90625 " fill-opacity="1" fill-rule="nonzero"/></g></g></g><g clip-path="url(#9c01cbce4e)"><g clip-path="url(#8d26b8a074)"><g clip-path="url(#26236c89ae)"><path fill="#ffffff" d="M 216.441406 208.804688 L 216.714844 211.273438 L 213.761719 210.335938 L 210.816406 209.402344 L 213.492188 207.871094 L 216.171875 206.339844 Z M 216.441406 208.804688 " fill-opacity="1" fill-rule="nonzero"/></g></g></g><g clip-path="url(#133145981d)"><g clip-path="url(#7a78d28151)"><g clip-path="url(#19dfcf8b78)"><path fill="#ffffff" d="M 244.425781 204.214844 C 245.21875 209.050781 242.929688 213.6875 238.992188 216.128906 C 237.707031 216.925781 236.242188 217.492188 234.652344 217.753906 C 228.195312 218.8125 222.113281 214.464844 221.058594 208.046875 C 220.003906 201.625 224.382812 195.566406 230.835938 194.507812 C 231.769531 194.355469 232.691406 194.316406 233.59375 194.382812 C 238.945312 194.742188 243.523438 198.71875 244.425781 204.214844 Z M 244.425781 204.214844 " fill-opacity="1" fill-rule="nonzero"/></g></g></g><g clip-path="url(#09c9d976bd)"><g clip-path="url(#d77e8c6f90)"><g clip-path="url(#b916edcf48)"><path fill="#000000" d="M 234.710938 218.121094 C 228.070312 219.210938 221.78125 214.71875 220.695312 208.109375 C 219.609375 201.496094 224.132812 195.234375 230.777344 194.144531 C 231.71875 193.988281 232.675781 193.945312 233.617188 194.015625 C 239.277344 194.398438 243.871094 198.570312 244.789062 204.15625 C 245.585938 209.011719 243.386719 213.839844 239.1875 216.441406 C 237.820312 217.292969 236.3125 217.859375 234.710938 218.121094 Z M 230.898438 194.871094 C 224.65625 195.898438 220.40625 201.78125 221.421875 207.988281 C 222.441406 214.195312 228.347656 218.417969 234.59375 217.394531 C 236.097656 217.144531 237.515625 216.613281 238.800781 215.816406 C 242.746094 213.367188 244.8125 208.835938 244.066406 204.273438 C 243.203125 199.027344 238.886719 195.109375 233.566406 194.75 C 232.679688 194.683594 231.78125 194.726562 230.898438 194.871094 Z M 230.898438 194.871094 " fill-opacity="1" fill-rule="nonzero"/></g></g></g><g clip-path="url(#071f7f67fb)"><g clip-path="url(#5ee4f1203d)"><g clip-path="url(#8bb9529975)"><path fill="#000000" d="M 238.078125 205.253906 C 238.175781 205.835938 238.214844 206.421875 238.199219 207.007812 C 238.183594 207.597656 238.113281 208.175781 237.988281 208.746094 C 237.859375 209.320312 237.683594 209.871094 237.453125 210.40625 C 237.21875 210.941406 236.941406 211.445312 236.613281 211.917969 C 236.285156 212.394531 235.917969 212.832031 235.503906 213.230469 C 235.09375 213.628906 234.648438 213.984375 234.167969 214.289062 C 233.6875 214.597656 233.183594 214.851562 232.65625 215.054688 C 232.125 215.257812 231.582031 215.40625 231.023438 215.496094 C 230.464844 215.589844 229.902344 215.625 229.335938 215.601562 C 228.769531 215.578125 228.210938 215.496094 227.65625 215.359375 C 227.105469 215.222656 226.570312 215.03125 226.050781 214.78125 C 225.535156 214.535156 225.042969 214.238281 224.582031 213.894531 C 224.121094 213.546875 223.691406 213.160156 223.304688 212.726562 C 222.914062 212.296875 222.566406 211.828125 222.265625 211.328125 C 221.964844 210.824219 221.710938 210.296875 221.511719 209.746094 C 221.308594 209.195312 221.160156 208.628906 221.0625 208.046875 C 220.96875 207.46875 220.929688 206.882812 220.945312 206.296875 C 220.960938 205.707031 221.03125 205.128906 221.15625 204.554688 C 221.28125 203.984375 221.460938 203.433594 221.691406 202.898438 C 221.921875 202.363281 222.199219 201.859375 222.527344 201.382812 C 222.855469 200.910156 223.226562 200.472656 223.636719 200.070312 C 224.046875 199.671875 224.496094 199.320312 224.972656 199.011719 C 225.453125 198.707031 225.957031 198.453125 226.488281 198.246094 C 227.015625 198.042969 227.5625 197.898438 228.121094 197.804688 C 228.679688 197.714844 229.242188 197.679688 229.808594 197.703125 C 230.375 197.726562 230.933594 197.808594 231.484375 197.945312 C 232.039062 198.082031 232.574219 198.273438 233.089844 198.519531 C 233.609375 198.765625 234.097656 199.0625 234.558594 199.410156 C 235.023438 199.753906 235.449219 200.144531 235.839844 200.578125 C 236.226562 201.007812 236.574219 201.476562 236.875 201.976562 C 237.175781 202.476562 237.429688 203.003906 237.632812 203.558594 C 237.835938 204.109375 237.984375 204.675781 238.078125 205.253906 Z M 238.078125 205.253906 " fill-opacity="1" fill-rule="nonzero"/><path fill="#000000" d="M 231.050781 215.679688 C 226.261719 216.464844 221.699219 213.054688 220.882812 208.078125 C 220.0625 203.101562 223.296875 198.410156 228.089844 197.625 C 232.882812 196.835938 237.445312 200.246094 238.261719 205.226562 C 239.078125 210.203125 235.839844 214.894531 231.050781 215.679688 Z M 228.148438 197.988281 C 223.558594 198.742188 220.460938 203.242188 221.246094 208.019531 C 222.03125 212.796875 226.402344 216.070312 230.992188 215.316406 C 235.582031 214.5625 238.679688 210.0625 237.898438 205.285156 C 237.113281 200.507812 232.738281 197.234375 228.148438 197.988281 Z M 228.148438 197.988281 " fill-opacity="1" fill-rule="nonzero"/></g></g></g><g clip-path="url(#a7a2e980bf)"><g clip-path="url(#d4fdcf3e33)"><g clip-path="url(#89c2f76114)"><path fill="#ffffff" d="M 238.59375 206.886719 L 238.867188 209.351562 L 235.914062 208.417969 L 232.964844 207.480469 L 235.644531 205.949219 L 238.324219 204.421875 Z M 238.59375 206.886719 " fill-opacity="1" fill-rule="nonzero"/></g></g></g><g clip-path="url(#5f7879bd0f)"><g clip-path="url(#1950ddd10c)"><g clip-path="url(#752c651abd)"><path fill="#d62700" d="M 226.050781 214.238281 C 226.839844 215.8125 225.34375 218.550781 223.160156 219.054688 C 220.734375 219.617188 218.089844 217.269531 218.296875 215.511719 C 218.46875 214.089844 220.476562 213.230469 221.722656 212.992188 C 223.039062 212.742188 225.351562 212.839844 226.050781 214.238281 Z M 226.050781 214.238281 " fill-opacity="1" fill-rule="nonzero"/></g></g></g><g clip-path="url(#748ec7dc73)"><g clip-path="url(#e1e08e081d)"><g clip-path="url(#287a7b2ab3)"><path fill="#000000" d="M 223.023438 219.460938 C 221.765625 219.667969 220.34375 219.207031 219.246094 218.222656 C 218.316406 217.390625 217.824219 216.359375 217.929688 215.46875 C 218.136719 213.742188 220.453125 212.855469 221.65625 212.628906 C 223.117188 212.347656 225.597656 212.5 226.382812 214.078125 C 226.761719 214.839844 226.710938 215.855469 226.234375 216.863281 C 225.628906 218.152344 224.480469 219.132812 223.246094 219.417969 C 223.167969 219.4375 223.09375 219.449219 223.023438 219.460938 Z M 221.914062 213.335938 C 221.867188 213.34375 221.828125 213.347656 221.789062 213.355469 C 220.652344 213.570312 218.804688 214.359375 218.660156 215.558594 C 218.582031 216.203125 218.996094 217.011719 219.734375 217.675781 C 220.507812 218.367188 221.792969 219 223.074219 218.699219 C 224.09375 218.460938 225.050781 217.636719 225.5625 216.546875 C 225.933594 215.757812 225.992188 214.957031 225.71875 214.402344 C 225.140625 213.25 223.132812 213.132812 221.914062 213.335938 Z M 221.914062 213.335938 " fill-opacity="1" fill-rule="nonzero"/></g></g></g><g clip-path="url(#38b14ed45d)"><g clip-path="url(#868a6513fe)"><g clip-path="url(#d9cc6e4181)"><path fill="#000000" d="M 227.21875 229.476562 C 226.496094 229.597656 225.746094 229.675781 224.957031 229.710938 C 219.121094 229.960938 214.863281 227.507812 212.84375 226.019531 C 212.675781 225.898438 212.644531 225.667969 212.765625 225.503906 C 212.890625 225.34375 213.117188 225.304688 213.28125 225.425781 C 215.222656 226.859375 219.3125 229.222656 224.925781 228.976562 C 230.492188 228.738281 234.351562 226.066406 236.15625 224.492188 C 236.3125 224.355469 236.542969 224.371094 236.679688 224.527344 C 236.8125 224.683594 236.796875 224.917969 236.640625 225.050781 C 235.015625 226.457031 231.800781 228.726562 227.21875 229.476562 Z M 227.21875 229.476562 " fill-opacity="1" fill-rule="nonzero"/></g></g></g><g clip-path="url(#000b0f3b11)"><g clip-path="url(#ed312025a4)"><g clip-path="url(#28dac4a9a5)"><path fill="#000000" d="M 240.050781 225.707031 C 238.347656 225.988281 236.664062 225.503906 235.617188 224.3125 C 234.472656 223.015625 234.515625 221.347656 234.585938 220.695312 C 234.609375 220.492188 234.789062 220.347656 234.992188 220.367188 C 235.191406 220.390625 235.339844 220.570312 235.320312 220.773438 C 235.257812 221.332031 235.222656 222.75 236.167969 223.824219 C 237.410156 225.238281 239.753906 225.457031 241.734375 224.34375 C 241.914062 224.246094 242.136719 224.308594 242.238281 224.488281 C 242.335938 224.664062 242.273438 224.890625 242.09375 224.988281 C 241.441406 225.359375 240.742188 225.59375 240.050781 225.707031 Z M 240.050781 225.707031 " fill-opacity="1" fill-rule="nonzero"/></g></g></g><g clip-path="url(#018279e002)"><g clip-path="url(#b834d3b5b2)"><g clip-path="url(#9124440035)"><path fill="#000000" d="M 237.539062 219.96875 C 237.675781 219.972656 237.792969 220.042969 237.886719 220.175781 C 237.980469 220.3125 238.023438 220.472656 238.019531 220.65625 C 238.011719 220.84375 237.957031 221 237.855469 221.128906 C 237.753906 221.257812 237.632812 221.320312 237.496094 221.316406 C 237.355469 221.3125 237.238281 221.242188 237.148438 221.105469 C 237.054688 220.972656 237.007812 220.8125 237.015625 220.625 C 237.019531 220.4375 237.074219 220.28125 237.175781 220.152344 C 237.28125 220.023438 237.398438 219.960938 237.539062 219.96875 Z M 237.539062 219.96875 " fill-opacity="1" fill-rule="nonzero"/></g></g></g><g clip-path="url(#1e85d83a4d)"><g clip-path="url(#7be192fbce)"><g clip-path="url(#1aaf05b2c4)"><path fill="#000000" d="M 239.453125 222.140625 C 239.59375 222.144531 239.707031 222.214844 239.800781 222.351562 C 239.894531 222.484375 239.9375 222.644531 239.933594 222.832031 C 239.925781 223.019531 239.871094 223.175781 239.769531 223.304688 C 239.667969 223.433594 239.546875 223.496094 239.410156 223.488281 C 239.269531 223.484375 239.15625 223.414062 239.0625 223.28125 C 238.96875 223.144531 238.925781 222.984375 238.929688 222.800781 C 238.9375 222.613281 238.992188 222.457031 239.09375 222.328125 C 239.195312 222.199219 239.316406 222.136719 239.453125 222.140625 Z M 239.453125 222.140625 " fill-opacity="1" fill-rule="nonzero"/></g></g></g><g clip-path="url(#99c2af4a6b)"><g clip-path="url(#d95dd586e7)"><g clip-path="url(#fe0cd3511b)"><path fill="#000000" d="M 241.132812 220.082031 C 241.269531 220.085938 241.386719 220.15625 241.480469 220.292969 C 241.574219 220.425781 241.617188 220.585938 241.613281 220.773438 C 241.605469 220.960938 241.550781 221.117188 241.449219 221.246094 C 241.347656 221.375 241.226562 221.4375 241.089844 221.433594 C 240.949219 221.425781 240.835938 221.359375 240.742188 221.222656 C 240.648438 221.085938 240.605469 220.925781 240.609375 220.742188 C 240.617188 220.554688 240.667969 220.398438 240.773438 220.269531 C 240.875 220.140625 240.996094 220.078125 241.132812 220.082031 Z M 241.132812 220.082031 " fill-opacity="1" fill-rule="nonzero"/></g></g></g><g clip-path="url(#6836ff6e77)"><g clip-path="url(#084329e3c0)"><g clip-path="url(#dc8e10f292)"><path fill="#000000" d="M 209.855469 228.128906 C 209.164062 228.242188 208.429688 228.238281 207.691406 228.09375 C 207.488281 228.054688 207.355469 227.863281 207.394531 227.664062 C 207.433594 227.464844 207.625 227.332031 207.824219 227.371094 C 210.058594 227.792969 212.203125 226.832031 212.933594 225.097656 C 213.492188 223.773438 213 222.441406 212.761719 221.933594 C 212.675781 221.75 212.761719 221.53125 212.945312 221.441406 C 213.128906 221.359375 213.347656 221.4375 213.433594 221.625 C 213.710938 222.226562 214.28125 223.789062 213.613281 225.378906 C 212.996094 226.847656 211.558594 227.847656 209.855469 228.128906 Z M 209.855469 228.128906 " fill-opacity="1" fill-rule="nonzero"/></g></g></g><g clip-path="url(#d3b87b33bb)"><g clip-path="url(#c237759cdd)"><g clip-path="url(#fe36af9931)"><path fill="#000000" d="M 211.113281 222.324219 C 211.175781 222.496094 211.1875 222.664062 211.140625 222.820312 C 211.097656 222.980469 211.007812 223.082031 210.878906 223.128906 C 210.75 223.179688 210.617188 223.160156 210.476562 223.070312 C 210.339844 222.980469 210.238281 222.847656 210.171875 222.675781 C 210.109375 222.5 210.097656 222.332031 210.144531 222.175781 C 210.1875 222.019531 210.277344 221.914062 210.40625 221.867188 C 210.535156 221.816406 210.667969 221.839844 210.808594 221.925781 C 210.945312 222.015625 211.046875 222.148438 211.113281 222.324219 Z M 211.113281 222.324219 " fill-opacity="1" fill-rule="nonzero"/></g></g></g><g clip-path="url(#81ad04310c)"><g clip-path="url(#782e75c260)"><g clip-path="url(#48fa23f74a)"><path fill="#000000" d="M 209.992188 224.996094 C 210.058594 225.167969 210.066406 225.335938 210.023438 225.492188 C 209.976562 225.652344 209.886719 225.753906 209.757812 225.800781 C 209.628906 225.851562 209.496094 225.832031 209.359375 225.742188 C 209.21875 225.652344 209.117188 225.519531 209.054688 225.347656 C 208.988281 225.171875 208.976562 225.003906 209.023438 224.847656 C 209.070312 224.691406 209.15625 224.585938 209.285156 224.539062 C 209.417969 224.488281 209.550781 224.511719 209.6875 224.597656 C 209.824219 224.6875 209.925781 224.820312 209.992188 224.996094 Z M 209.992188 224.996094 " fill-opacity="1" fill-rule="nonzero"/></g></g></g><g clip-path="url(#d5b0796703)"><g clip-path="url(#96ad154423)"><g clip-path="url(#48f1b1ceea)"><path fill="#000000" d="M 207.742188 223.582031 C 207.808594 223.757812 207.816406 223.921875 207.773438 224.082031 C 207.726562 224.238281 207.640625 224.339844 207.507812 224.390625 C 207.378906 224.4375 207.246094 224.417969 207.109375 224.328125 C 206.96875 224.238281 206.867188 224.109375 206.804688 223.933594 C 206.738281 223.757812 206.726562 223.59375 206.773438 223.433594 C 206.820312 223.277344 206.90625 223.175781 207.035156 223.125 C 207.167969 223.078125 207.300781 223.097656 207.4375 223.1875 C 207.574219 223.277344 207.675781 223.40625 207.742188 223.582031 Z M 207.742188 223.582031 " fill-opacity="1" fill-rule="nonzero"/></g></g></g><g clip-path="url(#4650af8d17)"><g clip-path="url(#1269176501)"><g clip-path="url(#bda613cb66)"><path fill="#ffffff" d="M 154.699219 218.066406 C 155.492188 222.90625 159.144531 226.566406 163.65625 227.621094 C 165.128906 227.96875 166.699219 228.035156 168.289062 227.773438 C 174.742188 226.714844 179.117188 220.648438 178.066406 214.234375 C 177.011719 207.8125 170.929688 203.46875 164.472656 204.527344 C 163.542969 204.679688 162.652344 204.9375 161.820312 205.289062 C 156.871094 207.34375 153.796875 212.574219 154.699219 218.066406 Z M 154.699219 218.066406 " fill-opacity="1" fill-rule="nonzero"/></g></g></g><g clip-path="url(#c4da9cdaba)"><g clip-path="url(#4794de5f44)"><g clip-path="url(#f302fc4c96)"><path fill="#000000" d="M 168.347656 228.140625 C 166.746094 228.402344 165.140625 228.351562 163.574219 227.984375 C 158.757812 226.855469 155.132812 222.988281 154.335938 218.132812 C 153.417969 212.546875 156.441406 207.125 161.683594 204.953125 C 162.554688 204.585938 163.472656 204.324219 164.417969 204.167969 C 171.058594 203.078125 177.34375 207.570312 178.429688 214.175781 C 179.515625 220.785156 174.992188 227.050781 168.347656 228.140625 Z M 164.53125 204.890625 C 163.644531 205.039062 162.78125 205.289062 161.96875 205.632812 C 157.039062 207.671875 154.203125 212.765625 155.0625 218.011719 C 155.8125 222.574219 159.21875 226.210938 163.742188 227.269531 C 165.214844 227.613281 166.726562 227.664062 168.234375 227.417969 C 174.472656 226.390625 178.722656 220.507812 177.703125 214.296875 C 176.683594 208.085938 170.773438 203.867188 164.53125 204.890625 Z M 164.53125 204.890625 " fill-opacity="1" fill-rule="nonzero"/></g></g></g><g clip-path="url(#27bf3f49fa)"><g clip-path="url(#7e24869fcc)"><g clip-path="url(#890525837b)"><path fill="#000000" d="M 178.0625 214.234375 C 178.15625 214.816406 178.195312 215.398438 178.179688 215.988281 C 178.164062 216.574219 178.09375 217.152344 177.96875 217.726562 C 177.84375 218.296875 177.664062 218.851562 177.433594 219.382812 C 177.203125 219.917969 176.925781 220.421875 176.597656 220.898438 C 176.269531 221.375 175.898438 221.8125 175.488281 222.210938 C 175.074219 222.609375 174.628906 222.960938 174.152344 223.269531 C 173.671875 223.574219 173.167969 223.832031 172.636719 224.035156 C 172.109375 224.238281 171.5625 224.386719 171.003906 224.476562 C 170.445312 224.570312 169.882812 224.601562 169.316406 224.578125 C 168.75 224.554688 168.191406 224.476562 167.640625 224.335938 C 167.085938 224.199219 166.550781 224.007812 166.035156 223.761719 C 165.515625 223.515625 165.027344 223.21875 164.566406 222.871094 C 164.101562 222.527344 163.675781 222.136719 163.285156 221.707031 C 162.898438 221.273438 162.550781 220.808594 162.25 220.304688 C 161.949219 219.804688 161.695312 219.277344 161.492188 218.726562 C 161.289062 218.175781 161.140625 217.609375 161.046875 217.027344 C 160.949219 216.445312 160.910156 215.863281 160.925781 215.273438 C 160.941406 214.6875 161.011719 214.105469 161.136719 213.535156 C 161.265625 212.964844 161.441406 212.410156 161.671875 211.875 C 161.90625 211.34375 162.183594 210.839844 162.511719 210.363281 C 162.839844 209.886719 163.207031 209.449219 163.621094 209.050781 C 164.03125 208.652344 164.476562 208.300781 164.957031 207.992188 C 165.4375 207.683594 165.941406 207.429688 166.46875 207.226562 C 167 207.023438 167.542969 206.875 168.101562 206.785156 C 168.660156 206.691406 169.222656 206.660156 169.789062 206.683594 C 170.355469 206.707031 170.914062 206.785156 171.46875 206.921875 C 172.019531 207.0625 172.554688 207.253906 173.074219 207.5 C 173.589844 207.746094 174.082031 208.042969 174.542969 208.386719 C 175.003906 208.734375 175.429688 209.121094 175.820312 209.554688 C 176.210938 209.988281 176.554688 210.453125 176.859375 210.957031 C 177.160156 211.457031 177.414062 211.984375 177.613281 212.535156 C 177.816406 213.085938 177.964844 213.652344 178.0625 214.234375 Z M 178.0625 214.234375 " fill-opacity="1" fill-rule="nonzero"/><path fill="#000000" d="M 171.035156 224.664062 C 166.242188 225.449219 161.683594 222.039062 160.863281 217.058594 C 160.046875 212.082031 163.28125 207.394531 168.074219 206.605469 C 172.867188 205.820312 177.425781 209.230469 178.242188 214.207031 C 179.0625 219.1875 175.828125 223.875 171.035156 224.664062 Z M 168.132812 206.964844 C 163.539062 207.71875 160.445312 212.21875 161.226562 216.996094 C 162.011719 221.773438 166.386719 225.046875 170.976562 224.292969 C 175.566406 223.542969 178.664062 219.042969 177.878906 214.265625 C 177.09375 209.488281 172.722656 206.210938 168.132812 206.964844 Z M 168.132812 206.964844 " fill-opacity="1" fill-rule="nonzero"/></g></g></g><g clip-path="url(#cc1067be31)"><g clip-path="url(#b9bb677303)"><g clip-path="url(#dd8b342e3d)"><path fill="#ffffff" d="M 161.078125 218.738281 L 161.609375 221.160156 L 166.601562 217.503906 L 160.546875 216.316406 Z M 161.078125 218.738281 " fill-opacity="1" fill-rule="nonzero"/></g></g></g><g clip-path="url(#e82396a335)"><g clip-path="url(#546e205be7)"><g clip-path="url(#0d1cbddf22)"><path fill="#ffffff" d="M 133.097656 223.328125 C 133.890625 228.164062 137.539062 231.824219 142.050781 232.882812 C 143.527344 233.226562 145.09375 233.296875 146.683594 233.035156 C 153.140625 231.976562 157.515625 225.910156 156.460938 219.496094 C 155.410156 213.070312 149.324219 208.730469 142.871094 209.789062 C 141.9375 209.941406 141.050781 210.199219 140.21875 210.550781 C 135.269531 212.601562 132.195312 217.835938 133.097656 223.328125 Z M 133.097656 223.328125 " fill-opacity="1" fill-rule="nonzero"/><path fill="#000000" d="M 146.746094 233.402344 C 145.144531 233.664062 143.535156 233.609375 141.96875 233.242188 C 137.15625 232.117188 133.53125 228.25 132.734375 223.390625 C 131.816406 217.804688 134.839844 212.386719 140.082031 210.214844 C 140.953125 209.847656 141.867188 209.582031 142.816406 209.429688 C 149.457031 208.339844 155.742188 212.828125 156.828125 219.4375 C 157.910156 226.046875 153.390625 232.3125 146.746094 233.402344 Z M 142.929688 210.152344 C 142.042969 210.296875 141.179688 210.546875 140.363281 210.890625 C 135.4375 212.933594 132.601562 218.023438 133.460938 223.273438 C 134.210938 227.835938 137.617188 231.46875 142.140625 232.527344 C 143.613281 232.875 145.125 232.925781 146.628906 232.675781 C 152.871094 231.652344 157.117188 225.769531 156.097656 219.558594 C 155.078125 213.347656 149.171875 209.128906 142.929688 210.152344 Z M 142.929688 210.152344 " fill-opacity="1" fill-rule="nonzero"/></g></g></g><g clip-path="url(#20cfdec8bf)"><g clip-path="url(#1967d2b7dc)"><g clip-path="url(#0df0660b68)"><path fill="#000000" d="M 156.457031 219.496094 C 156.554688 220.074219 156.59375 220.660156 156.578125 221.246094 C 156.5625 221.835938 156.492188 222.414062 156.367188 222.988281 C 156.242188 223.558594 156.0625 224.109375 155.832031 224.644531 C 155.601562 225.179688 155.320312 225.683594 154.992188 226.160156 C 154.664062 226.632812 154.296875 227.070312 153.882812 227.46875 C 153.472656 227.871094 153.027344 228.222656 152.546875 228.53125 C 152.066406 228.835938 151.5625 229.089844 151.035156 229.292969 C 150.503906 229.5 149.960938 229.644531 149.402344 229.738281 C 148.84375 229.828125 148.28125 229.863281 147.714844 229.839844 C 147.148438 229.816406 146.589844 229.734375 146.035156 229.597656 C 145.484375 229.460938 144.949219 229.269531 144.429688 229.023438 C 143.914062 228.777344 143.425781 228.480469 142.960938 228.132812 C 142.5 227.789062 142.074219 227.398438 141.683594 226.964844 C 141.292969 226.535156 140.949219 226.066406 140.644531 225.566406 C 140.34375 225.066406 140.09375 224.539062 139.890625 223.984375 C 139.6875 223.433594 139.539062 222.867188 139.441406 222.289062 C 139.347656 221.707031 139.308594 221.121094 139.324219 220.535156 C 139.339844 219.945312 139.410156 219.367188 139.535156 218.796875 C 139.660156 218.222656 139.839844 217.671875 140.070312 217.136719 C 140.300781 216.601562 140.582031 216.097656 140.910156 215.625 C 141.234375 215.148438 141.605469 214.710938 142.015625 214.3125 C 142.429688 213.914062 142.875 213.558594 143.355469 213.253906 C 143.832031 212.945312 144.339844 212.691406 144.867188 212.488281 C 145.398438 212.285156 145.941406 212.136719 146.5 212.042969 C 147.058594 211.953125 147.621094 211.917969 148.1875 211.941406 C 148.753906 211.964844 149.3125 212.046875 149.867188 212.183594 C 150.417969 212.320312 150.953125 212.511719 151.46875 212.761719 C 151.988281 213.007812 152.476562 213.300781 152.941406 213.648438 C 153.402344 213.996094 153.828125 214.382812 154.21875 214.816406 C 154.609375 215.246094 154.953125 215.714844 155.253906 216.214844 C 155.558594 216.71875 155.808594 217.242188 156.011719 217.796875 C 156.214844 218.347656 156.363281 218.914062 156.457031 219.496094 Z M 156.457031 219.496094 " fill-opacity="1" fill-rule="nonzero"/></g></g></g><g clip-path="url(#143190fb6d)"><g clip-path="url(#4f27ce23c3)"><g clip-path="url(#efa755e831)"><path fill="#000000" d="M 149.433594 229.921875 C 144.640625 230.710938 140.078125 227.296875 139.261719 222.320312 C 138.445312 217.34375 141.675781 212.652344 146.46875 211.867188 C 151.261719 211.082031 155.824219 214.492188 156.640625 219.46875 C 157.457031 224.445312 154.226562 229.136719 149.433594 229.921875 Z M 146.527344 212.226562 C 141.9375 212.980469 138.839844 217.480469 139.625 222.257812 C 140.410156 227.035156 144.785156 230.308594 149.371094 229.554688 C 153.964844 228.800781 157.0625 224.300781 156.277344 219.523438 C 155.492188 214.746094 151.121094 211.472656 146.527344 212.226562 Z M 146.527344 212.226562 " fill-opacity="1" fill-rule="nonzero"/></g></g></g><g clip-path="url(#0f31e4f6cc)"><g clip-path="url(#d740972a05)"><g clip-path="url(#fce54b66d1)"><path fill="#ffffff" d="M 139.476562 223.996094 L 140.003906 226.421875 L 142.503906 224.589844 L 145 222.765625 L 138.945312 221.578125 Z M 139.476562 223.996094 " fill-opacity="1" fill-rule="nonzero"/></g></g></g><g clip-path="url(#7b8339dad5)"><g clip-path="url(#8ab1230063)"><g clip-path="url(#b2eb991cf0)"><path fill="#000000" d="M 134.527344 215.683594 C 134.523438 215.683594 134.519531 215.683594 134.511719 215.6875 C 133.378906 215.816406 132.25 215.722656 131.15625 215.402344 C 130.238281 215.140625 129.378906 214.71875 128.59375 214.167969 C 128.425781 214.050781 128.386719 213.820312 128.503906 213.65625 C 128.625 213.492188 128.851562 213.449219 129.015625 213.570312 C 129.730469 214.074219 130.523438 214.457031 131.359375 214.699219 C 132.355469 214.984375 133.386719 215.070312 134.425781 214.953125 C 134.625 214.929688 134.8125 215.078125 134.832031 215.277344 C 134.855469 215.472656 134.722656 215.652344 134.527344 215.683594 Z M 134.527344 215.683594 " fill-opacity="1" fill-rule="nonzero"/></g></g></g><g clip-path="url(#0c47f48ef6)"><g clip-path="url(#f55be5e151)"><g clip-path="url(#c817cb1947)"><path fill="#000000" d="M 133.316406 219.117188 C 133.308594 219.121094 133.308594 219.121094 133.300781 219.121094 C 132.167969 219.25 131.035156 219.15625 129.945312 218.839844 C 129.027344 218.570312 128.164062 218.15625 127.382812 217.601562 C 127.214844 217.480469 127.175781 217.253906 127.292969 217.085938 C 127.410156 216.917969 127.640625 216.878906 127.804688 216.996094 C 128.519531 217.503906 129.308594 217.886719 130.148438 218.125 C 131.144531 218.414062 132.171875 218.5 133.210938 218.382812 C 133.414062 218.359375 133.597656 218.503906 133.621094 218.707031 C 133.644531 218.90625 133.507812 219.085938 133.316406 219.117188 Z M 133.316406 219.117188 " fill-opacity="1" fill-rule="nonzero"/></g></g></g><g clip-path="url(#ecade54d0c)"><g clip-path="url(#fd22650b72)"><g clip-path="url(#6838944a7a)"><path fill="#000000" d="M 132.921875 222.414062 C 132.914062 222.414062 132.910156 222.414062 132.902344 222.414062 C 131.769531 222.546875 130.640625 222.449219 129.546875 222.132812 C 128.628906 221.867188 127.769531 221.449219 126.984375 220.894531 C 126.820312 220.777344 126.777344 220.546875 126.894531 220.378906 C 127.015625 220.210938 127.242188 220.171875 127.40625 220.289062 C 128.121094 220.796875 128.914062 221.179688 129.75 221.417969 C 130.746094 221.707031 131.777344 221.792969 132.8125 221.675781 C 133.015625 221.652344 133.199219 221.796875 133.222656 222 C 133.25 222.207031 133.113281 222.378906 132.921875 222.414062 Z M 132.921875 222.414062 " fill-opacity="1" fill-rule="nonzero"/></g></g></g><g clip-path="url(#565d68640b)"><g clip-path="url(#9374c3c480)"><g clip-path="url(#8010d7a4e7)"><path fill="#000000" d="M 173.480469 206.675781 C 173.289062 206.707031 173.101562 206.582031 173.058594 206.390625 C 173.015625 206.191406 173.144531 205.996094 173.34375 205.949219 C 174.363281 205.730469 175.3125 205.320312 176.164062 204.730469 C 176.882812 204.230469 177.507812 203.617188 178.023438 202.910156 C 178.140625 202.746094 178.375 202.710938 178.535156 202.828125 C 178.703125 202.949219 178.738281 203.183594 178.617188 203.347656 C 178.054688 204.125 177.367188 204.792969 176.582031 205.339844 C 175.652344 205.992188 174.609375 206.4375 173.496094 206.679688 C 173.492188 206.671875 173.488281 206.675781 173.480469 206.675781 Z M 173.480469 206.675781 " fill-opacity="1" fill-rule="nonzero"/></g></g></g><g clip-path="url(#6ac90030d7)"><g clip-path="url(#ee953301fe)"><g clip-path="url(#efe597a716)"><path fill="#000000" d="M 175.726562 209.542969 C 175.53125 209.574219 175.347656 209.449219 175.304688 209.257812 C 175.261719 209.058594 175.390625 208.863281 175.589844 208.816406 C 176.609375 208.597656 177.558594 208.1875 178.410156 207.597656 C 179.128906 207.097656 179.753906 206.488281 180.269531 205.777344 C 180.386719 205.613281 180.621094 205.578125 180.78125 205.699219 C 180.949219 205.816406 180.980469 206.050781 180.863281 206.214844 C 180.300781 206.992188 179.613281 207.660156 178.828125 208.207031 C 177.894531 208.855469 176.855469 209.304688 175.742188 209.546875 C 175.742188 209.539062 175.734375 209.542969 175.726562 209.542969 Z M 175.726562 209.542969 " fill-opacity="1" fill-rule="nonzero"/></g></g></g><g clip-path="url(#c195fff7b4)"><g clip-path="url(#544624e9a6)"><g clip-path="url(#ad9ecec2a1)"><path fill="#000000" d="M 177.09375 212.15625 C 176.898438 212.1875 176.714844 212.058594 176.671875 211.867188 C 176.628906 211.671875 176.757812 211.472656 176.953125 211.429688 C 177.976562 211.210938 178.925781 210.800781 179.777344 210.207031 C 180.496094 209.710938 181.121094 209.097656 181.636719 208.390625 C 181.753906 208.226562 181.988281 208.191406 182.148438 208.308594 C 182.3125 208.429688 182.347656 208.660156 182.230469 208.828125 C 181.667969 209.601562 180.980469 210.273438 180.195312 210.820312 C 179.261719 211.46875 178.222656 211.917969 177.109375 212.160156 C 177.101562 212.152344 177.097656 212.15625 177.09375 212.15625 Z M 177.09375 212.15625 " fill-opacity="1" fill-rule="nonzero"/></g></g></g><g clip-path="url(#5eae98791b)"><g clip-path="url(#ddf5f989bc)"><g clip-path="url(#7d1094ec72)"><path fill="#d62700" d="M 153.714844 226.960938 C 153.46875 228.703125 155.765625 230.820312 157.992188 230.597656 C 160.472656 230.355469 162.230469 227.285156 161.46875 225.6875 C 160.855469 224.394531 158.675781 224.21875 157.417969 224.394531 C 156.085938 224.574219 153.925781 225.40625 153.714844 226.960938 Z M 153.714844 226.960938 " fill-opacity="1" fill-rule="nonzero"/></g></g></g><g clip-path="url(#312d794ff0)"><g clip-path="url(#fc2b568e86)"><g clip-path="url(#4b05a3e430)"><path fill="#000000" d="M 158.253906 230.9375 C 158.179688 230.949219 158.105469 230.957031 158.03125 230.96875 C 156.765625 231.09375 155.367188 230.53125 154.378906 229.503906 C 153.609375 228.699219 153.230469 227.753906 153.347656 226.910156 C 153.589844 225.171875 155.890625 224.238281 157.367188 224.03125 C 158.574219 223.863281 161.054688 223.964844 161.800781 225.53125 C 162.191406 226.34375 162.050781 227.476562 161.4375 228.5625 C 160.710938 229.835938 159.507812 230.730469 158.253906 230.9375 Z M 154.078125 227.007812 C 153.996094 227.617188 154.304688 228.359375 154.910156 228.988281 C 155.746094 229.859375 156.914062 230.335938 157.960938 230.230469 C 159.273438 230.105469 160.285156 229.09375 160.792969 228.195312 C 161.285156 227.332031 161.414062 226.429688 161.136719 225.847656 C 160.617188 224.757812 158.613281 224.601562 157.46875 224.757812 C 156.257812 224.921875 154.265625 225.683594 154.078125 227.007812 Z M 154.078125 227.007812 " fill-opacity="1" fill-rule="nonzero"/></g></g></g><g clip-path="url(#f0a3158676)"><g clip-path="url(#a5b2eb74c3)"><g clip-path="url(#4d67cfd6f4)"><path fill="#000000" d="M 159.664062 241.316406 C 154.082031 242.230469 149.664062 240.433594 147.5 239.261719 C 147.320312 239.164062 147.253906 238.9375 147.351562 238.761719 C 147.449219 238.585938 147.675781 238.515625 147.851562 238.613281 C 149.972656 239.761719 154.355469 241.550781 159.875 240.53125 C 165.351562 239.527344 168.808594 236.355469 170.382812 234.550781 C 170.515625 234.398438 170.75 234.378906 170.902344 234.511719 C 171.054688 234.648438 171.074219 234.878906 170.941406 235.03125 C 169.304688 236.90625 165.710938 240.210938 160.007812 241.253906 C 159.894531 241.277344 159.777344 241.296875 159.664062 241.316406 Z M 159.664062 241.316406 " fill-opacity="1" fill-rule="nonzero"/></g></g></g><g clip-path="url(#f21a271fcb)"><g clip-path="url(#19ea8e9279)"><g clip-path="url(#3502c87b87)"><path fill="#000000" d="M 173.640625 235.40625 C 172.238281 235.632812 170.839844 235.316406 169.828125 234.445312 C 168.519531 233.320312 168.332031 231.664062 168.308594 231.003906 C 168.300781 230.796875 168.460938 230.628906 168.664062 230.621094 C 168.871094 230.617188 169.039062 230.777344 169.046875 230.980469 C 169.0625 231.539062 169.21875 232.949219 170.308594 233.886719 C 171.734375 235.117188 174.085938 235.011719 175.894531 233.636719 C 176.058594 233.511719 176.285156 233.546875 176.410156 233.710938 C 176.535156 233.871094 176.5 234.101562 176.339844 234.226562 C 175.507812 234.859375 174.570312 235.25 173.640625 235.40625 Z M 173.640625 235.40625 " fill-opacity="1" fill-rule="nonzero"/></g></g></g><g clip-path="url(#d9a65697ca)"><g clip-path="url(#3f66a74eb5)"><g clip-path="url(#b15662f49d)"><path fill="#000000" d="M 171.132812 229.863281 C 171.269531 229.847656 171.394531 229.898438 171.507812 230.019531 C 171.617188 230.140625 171.683594 230.292969 171.703125 230.480469 C 171.722656 230.664062 171.691406 230.828125 171.605469 230.96875 C 171.523438 231.109375 171.414062 231.1875 171.273438 231.203125 C 171.136719 231.21875 171.011719 231.164062 170.902344 231.042969 C 170.789062 230.921875 170.726562 230.769531 170.707031 230.585938 C 170.6875 230.398438 170.71875 230.238281 170.800781 230.09375 C 170.886719 229.953125 170.996094 229.875 171.132812 229.863281 Z M 171.132812 229.863281 " fill-opacity="1" fill-rule="nonzero"/></g></g></g><g clip-path="url(#48cd14dbb9)"><g clip-path="url(#e53ded7cdd)"><g clip-path="url(#7047c4a0f9)"><path fill="#000000" d="M 173.332031 231.753906 C 173.46875 231.738281 173.59375 231.792969 173.703125 231.914062 C 173.816406 232.035156 173.882812 232.1875 173.902344 232.371094 C 173.921875 232.558594 173.886719 232.71875 173.804688 232.863281 C 173.722656 233.003906 173.609375 233.082031 173.472656 233.09375 C 173.335938 233.109375 173.210938 233.058594 173.097656 232.9375 C 172.988281 232.816406 172.921875 232.664062 172.902344 232.476562 C 172.882812 232.292969 172.914062 232.128906 173 231.988281 C 173.082031 231.847656 173.191406 231.769531 173.332031 231.753906 Z M 173.332031 231.753906 " fill-opacity="1" fill-rule="nonzero"/></g></g></g><g clip-path="url(#786fbe30b0)"><g clip-path="url(#69674ad760)"><g clip-path="url(#b4b118e42d)"><path fill="#000000" d="M 174.710938 229.484375 C 174.847656 229.472656 174.972656 229.523438 175.082031 229.644531 C 175.195312 229.765625 175.257812 229.917969 175.28125 230.105469 C 175.300781 230.289062 175.265625 230.453125 175.183594 230.59375 C 175.101562 230.734375 174.988281 230.8125 174.851562 230.828125 C 174.714844 230.84375 174.589844 230.789062 174.476562 230.667969 C 174.367188 230.546875 174.300781 230.394531 174.28125 230.210938 C 174.261719 230.023438 174.292969 229.859375 174.378906 229.71875 C 174.460938 229.578125 174.570312 229.5 174.710938 229.484375 Z M 174.710938 229.484375 " fill-opacity="1" fill-rule="nonzero"/></g></g></g><g clip-path="url(#25e98642c2)"><g clip-path="url(#b687bb88f4)"><g clip-path="url(#2ddd75e72a)"><path fill="#000000" d="M 144.019531 241.953125 C 143.585938 242.027344 143.136719 242.050781 142.683594 242.027344 C 142.480469 242.015625 142.324219 241.84375 142.332031 241.640625 C 142.34375 241.4375 142.515625 241.277344 142.71875 241.289062 C 144.984375 241.398438 146.984375 240.160156 147.464844 238.339844 C 147.832031 236.957031 147.167969 235.707031 146.863281 235.234375 C 146.753906 235.058594 146.800781 234.832031 146.972656 234.726562 C 147.140625 234.613281 147.375 234.664062 147.480469 234.835938 C 147.835938 235.390625 148.617188 236.863281 148.175781 238.535156 C 147.707031 240.308594 146.054688 241.621094 144.019531 241.953125 Z M 144.019531 241.953125 " fill-opacity="1" fill-rule="nonzero"/></g></g></g><g clip-path="url(#da4f6baa7a)"><g clip-path="url(#43deb4c481)"><g clip-path="url(#ab6cdbaf5d)"><path fill="#000000" d="M 145.273438 235.84375 C 145.363281 236.007812 145.394531 236.167969 145.371094 236.332031 C 145.347656 236.496094 145.277344 236.609375 145.152344 236.675781 C 145.03125 236.742188 144.898438 236.738281 144.75 236.667969 C 144.597656 236.601562 144.480469 236.484375 144.390625 236.320312 C 144.304688 236.15625 144.269531 235.992188 144.292969 235.828125 C 144.316406 235.667969 144.390625 235.554688 144.511719 235.488281 C 144.632812 235.421875 144.769531 235.421875 144.917969 235.492188 C 145.066406 235.5625 145.1875 235.679688 145.273438 235.84375 Z M 145.273438 235.84375 " fill-opacity="1" fill-rule="nonzero"/></g></g></g><g clip-path="url(#54d744eecb)"><g clip-path="url(#f7121f579b)"><g clip-path="url(#0e5a6b4fd2)"><path fill="#000000" d="M 144.53125 238.648438 C 144.621094 238.8125 144.652344 238.972656 144.628906 239.136719 C 144.605469 239.300781 144.535156 239.414062 144.410156 239.480469 C 144.289062 239.546875 144.15625 239.542969 144.003906 239.472656 C 143.855469 239.40625 143.738281 239.289062 143.648438 239.125 C 143.5625 238.960938 143.527344 238.796875 143.550781 238.632812 C 143.574219 238.472656 143.648438 238.359375 143.769531 238.292969 C 143.890625 238.226562 144.027344 238.226562 144.175781 238.296875 C 144.324219 238.367188 144.445312 238.484375 144.53125 238.648438 Z M 144.53125 238.648438 " fill-opacity="1" fill-rule="nonzero"/></g></g></g><g clip-path="url(#8ac8e2dbc0)"><g clip-path="url(#283f833b4a)"><g clip-path="url(#6ffef515b0)"><path fill="#000000" d="M 142.113281 237.550781 C 142.203125 237.714844 142.234375 237.878906 142.210938 238.042969 C 142.1875 238.203125 142.117188 238.320312 141.992188 238.382812 C 141.871094 238.449219 141.738281 238.449219 141.585938 238.378906 C 141.4375 238.308594 141.320312 238.191406 141.230469 238.027344 C 141.144531 237.863281 141.109375 237.703125 141.132812 237.539062 C 141.15625 237.375 141.230469 237.261719 141.351562 237.195312 C 141.472656 237.132812 141.609375 237.132812 141.757812 237.203125 C 141.90625 237.273438 142.027344 237.386719 142.113281 237.550781 Z M 142.113281 237.550781 " fill-opacity="1" fill-rule="nonzero"/></g></g></g></svg>